2025-05-25 12:27:51,825 - converter - INFO - Stream monitoring started.
2025-05-25 12:27:51,859 - werkzeug - INFO - [31m[1mWARNING: This is a development server. Do not use it in a production deployment. Use a production WSGI server instead.[0m
 * Running on all addresses (0.0.0.0)
 * Running on http://127.0.0.1:5000
 * Running on http://192.168.0.226:5000
2025-05-25 12:27:51,859 - werkzeug - INFO - [33mPress CTRL+C to quit[0m
2025-05-25 12:27:51,861 - werkzeug - INFO -  * Restarting with stat
2025-05-25 12:27:52,120 - converter - INFO - Stream monitoring started.
2025-05-25 12:27:52,137 - werkzeug - WARNING -  * Debugger is active!
2025-05-25 12:27:52,140 - werkzeug - INFO -  * Debugger PIN: 552-451-080
2025-05-25 12:27:53,371 - werkzeug - INFO - 127.0.0.1 - - [25/May/2025 12:27:53] "GET /api/streams HTTP/1.1" 200 -
2025-05-25 12:27:56,280 - werkzeug - INFO - 127.0.0.1 - - [25/May/2025 12:27:56] "GET / HTTP/1.1" 200 -
2025-05-25 12:27:56,298 - werkzeug - INFO - 127.0.0.1 - - [25/May/2025 12:27:56] "GET /api/streams HTTP/1.1" 200 -
2025-05-25 12:28:01,301 - werkzeug - INFO - 127.0.0.1 - - [25/May/2025 12:28:01] "GET /api/streams HTTP/1.1" 200 -
2025-05-25 12:28:06,506 - werkzeug - INFO - 127.0.0.1 - - [25/May/2025 12:28:06] "GET /api/streams HTTP/1.1" 200 -
2025-05-25 12:28:10,529 - __main__ - INFO - Adding stream 'Test_stream_1' with RTSP port 8555
2025-05-25 12:28:10,529 - converter - INFO - Added stream 'Test_stream_1': rtmp://localhost:1936/live/stream1 -> rtsp://localhost:8555/Test_stream_1
2025-05-25 12:28:10,529 - converter - INFO - Starting stream 'Test_stream_1' with command: ffmpeg -re -i rtmp://localhost:1936/live/stream1 -c:v copy -c:a copy -f rtsp -rtsp_transport tcp -progress pipe:2 rtsp://localhost:8555/Test_stream_1
2025-05-25 12:28:10,536 - converter - INFO - Stream 'Test_stream_1' started. Access via: rtsp://localhost:8555/Test_stream_1
2025-05-25 12:28:10,537 - werkzeug - INFO - 127.0.0.1 - - [25/May/2025 12:28:10] "POST /api/streams HTTP/1.1" 200 -
2025-05-25 12:28:10,541 - werkzeug - INFO - 127.0.0.1 - - [25/May/2025 12:28:10] "GET /api/streams HTTP/1.1" 200 -
2025-05-25 12:28:11,298 - werkzeug - INFO - 127.0.0.1 - - [25/May/2025 12:28:11] "GET /api/streams HTTP/1.1" 200 -
2025-05-25 12:28:13,002 - werkzeug - INFO - 127.0.0.1 - - [25/May/2025 12:28:13] "GET / HTTP/1.1" 200 -
2025-05-25 12:28:13,019 - werkzeug - INFO - 127.0.0.1 - - [25/May/2025 12:28:13] "GET /api/streams HTTP/1.1" 200 -
2025-05-25 12:28:17,833 - werkzeug - INFO - 127.0.0.1 - - [25/May/2025 12:28:17] "GET /api/streams HTTP/1.1" 200 -
2025-05-25 12:28:18,020 - werkzeug - INFO - 127.0.0.1 - - [25/May/2025 12:28:18] "GET /api/streams HTTP/1.1" 200 -
2025-05-25 12:28:19,381 - converter - INFO - [FFmpeg - Test_stream_1] Progress: frame=    6 fps=0.0 q=-1.0 size=N/A time=00:00:00.60 bitrate=N/A speed=1.15x elapsed=0:00:00.52    frame=6
2025-05-25 12:28:19,897 - converter - INFO - [FFmpeg - Test_stream_1] Progress: frame=   11 fps= 11 q=-1.0 size=N/A time=00:00:01.10 bitrate=N/A speed=1.06x elapsed=0:00:01.03    frame=11
2025-05-25 12:28:20,409 - converter - INFO - [FFmpeg - Test_stream_1] Progress: frame=   17 fps= 11 q=-1.0 size=N/A time=00:00:01.70 bitrate=N/A speed= 1.1x elapsed=0:00:01.55    frame=17
2025-05-25 12:28:20,924 - converter - INFO - [FFmpeg - Test_stream_1] Progress: frame=   22 fps= 11 q=-1.0 size=N/A time=00:00:02.20 bitrate=N/A speed=1.07x elapsed=0:00:02.06    frame=22
2025-05-25 12:28:21,437 - converter - INFO - [FFmpeg - Test_stream_1] Progress: frame=   28 fps= 11 q=-1.0 size=N/A time=00:00:02.70 bitrate=N/A speed=1.05x elapsed=0:00:02.57    frame=28
2025-05-25 12:28:21,945 - werkzeug - INFO - 127.0.0.1 - - [25/May/2025 12:28:21] "GET /api/streams HTTP/1.1" 200 -
2025-05-25 12:28:21,947 - converter - INFO - [FFmpeg - Test_stream_1] Progress: frame=   33 fps= 11 q=-1.0 size=N/A time=00:00:03.30 bitrate=N/A speed=1.07x elapsed=0:00:03.08    frame=33
2025-05-25 12:28:22,475 - converter - INFO - [FFmpeg - Test_stream_1] Progress: frame=   38 fps= 11 q=-1.0 size=N/A time=00:00:03.80 bitrate=N/A speed=1.05x elapsed=0:00:03.61    frame=38
2025-05-25 12:28:22,987 - converter - INFO - [FFmpeg - Test_stream_1] Progress: frame=   44 fps= 11 q=-1.0 size=N/A time=00:00:04.40 bitrate=N/A speed=1.07x elapsed=0:00:04.12    frame=44
2025-05-25 12:28:23,021 - werkzeug - INFO - 127.0.0.1 - - [25/May/2025 12:28:23] "GET /api/streams HTTP/1.1" 200 -
2025-05-25 12:28:23,503 - converter - INFO - [FFmpeg - Test_stream_1] Progress: frame=   49 fps= 11 q=-1.0 size=N/A time=00:00:04.90 bitrate=N/A speed=1.06x elapsed=0:00:04.64    frame=49
2025-05-25 12:28:24,017 - converter - INFO - [FFmpeg - Test_stream_1] Progress: frame=   55 fps= 11 q=-1.0 size=N/A time=00:00:05.40 bitrate=N/A speed=1.05x elapsed=0:00:05.15    frame=55
2025-05-25 12:28:24,529 - converter - INFO - [FFmpeg - Test_stream_1] Progress: frame=   60 fps= 11 q=-1.0 size=N/A time=00:00:06.00 bitrate=N/A speed=1.06x elapsed=0:00:05.67    frame=60
2025-05-25 12:28:25,046 - converter - INFO - [FFmpeg - Test_stream_1] Progress: frame=   65 fps= 11 q=-1.0 size=N/A time=00:00:06.50 bitrate=N/A speed=1.05x elapsed=0:00:06.18    frame=65
2025-05-25 12:28:25,560 - converter - INFO - [FFmpeg - Test_stream_1] Progress: frame=   71 fps= 11 q=-1.0 size=N/A time=00:00:07.10 bitrate=N/A speed=1.06x elapsed=0:00:06.70    frame=71
2025-05-25 12:28:26,074 - converter - INFO - [FFmpeg - Test_stream_1] Progress: frame=   76 fps= 11 q=-1.0 size=N/A time=00:00:07.60 bitrate=N/A speed=1.05x elapsed=0:00:07.21    frame=76
2025-05-25 12:28:26,589 - converter - INFO - [FFmpeg - Test_stream_1] Progress: frame=   82 fps= 11 q=-1.0 size=N/A time=00:00:08.20 bitrate=N/A speed=1.06x elapsed=0:00:07.73    frame=82
2025-05-25 12:28:27,113 - converter - INFO - [FFmpeg - Test_stream_1] Progress: frame=   87 fps= 11 q=-1.0 size=N/A time=00:00:08.70 bitrate=N/A speed=1.05x elapsed=0:00:08.25    frame=87
2025-05-25 12:28:27,628 - converter - INFO - [FFmpeg - Test_stream_1] Progress: frame=   93 fps= 11 q=-1.0 size=N/A time=00:00:09.30 bitrate=N/A speed=1.06x elapsed=0:00:08.76    frame=93
2025-05-25 12:28:28,031 - werkzeug - INFO - 127.0.0.1 - - [25/May/2025 12:28:28] "GET /api/streams HTTP/1.1" 200 -
2025-05-25 12:28:28,135 - converter - INFO - [FFmpeg - Test_stream_1] Progress: frame=   98 fps= 11 q=-1.0 size=N/A time=00:00:09.80 bitrate=N/A speed=1.06x elapsed=0:00:09.27    frame=98
2025-05-25 12:28:28,650 - converter - INFO - [FFmpeg - Test_stream_1] Progress: frame=  103 fps= 11 q=-1.0 size=N/A time=00:00:10.30 bitrate=N/A speed=1.05x elapsed=0:00:09.79    frame=103
2025-05-25 12:28:29,164 - converter - INFO - [FFmpeg - Test_stream_1] Progress: frame=  109 fps= 11 q=-1.0 size=N/A time=00:00:10.80 bitrate=N/A speed=1.05x elapsed=0:00:10.30    frame=109
2025-05-25 12:28:29,690 - converter - INFO - [FFmpeg - Test_stream_1] Progress: frame=  114 fps= 11 q=-1.0 size=N/A time=00:00:11.40 bitrate=N/A speed=1.05x elapsed=0:00:10.83    frame=114
2025-05-25 12:28:30,204 - converter - INFO - [FFmpeg - Test_stream_1] Progress: frame=  119 fps= 10 q=-1.0 size=N/A time=00:00:11.90 bitrate=N/A speed=1.05x elapsed=0:00:11.34    frame=119
2025-05-25 12:28:30,714 - converter - INFO - [FFmpeg - Test_stream_1] Progress: frame=  124 fps= 10 q=-1.0 size=N/A time=00:00:12.40 bitrate=N/A speed=1.05x elapsed=0:00:11.85    frame=124
2025-05-25 12:28:31,228 - converter - INFO - [FFmpeg - Test_stream_1] Progress: frame=  129 fps= 10 q=-1.0 size=N/A time=00:00:12.90 bitrate=N/A speed=1.04x elapsed=0:00:12.36    frame=129
2025-05-25 12:28:31,745 - converter - INFO - [FFmpeg - Test_stream_1] Progress: frame=  134 fps= 10 q=-1.0 size=N/A time=00:00:13.40 bitrate=N/A speed=1.04x elapsed=0:00:12.88    frame=134
2025-05-25 12:28:32,258 - converter - INFO - [FFmpeg - Test_stream_1] Progress: frame=  139 fps= 10 q=-1.0 size=N/A time=00:00:13.90 bitrate=N/A speed=1.04x elapsed=0:00:13.39    frame=139
2025-05-25 12:28:32,773 - converter - INFO - [FFmpeg - Test_stream_1] Progress: frame=  145 fps= 10 q=-1.0 size=N/A time=00:00:14.40 bitrate=N/A speed=1.03x elapsed=0:00:13.91    frame=145
2025-05-25 12:28:33,026 - werkzeug - INFO - 127.0.0.1 - - [25/May/2025 12:28:33] "GET /api/streams HTTP/1.1" 200 -
2025-05-25 12:28:33,299 - converter - INFO - [FFmpeg - Test_stream_1] Progress: frame=  150 fps= 10 q=-1.0 size=N/A time=00:00:15.00 bitrate=N/A speed=1.04x elapsed=0:00:14.44    frame=150
2025-05-25 12:28:33,816 - converter - INFO - [FFmpeg - Test_stream_1] Progress: frame=  155 fps= 10 q=-1.0 size=N/A time=00:00:15.50 bitrate=N/A speed=1.04x elapsed=0:00:14.95    frame=155
2025-05-25 12:28:34,329 - converter - INFO - [FFmpeg - Test_stream_1] Progress: frame=  160 fps= 10 q=-1.0 size=N/A time=00:00:16.00 bitrate=N/A speed=1.03x elapsed=0:00:15.47    frame=160
2025-05-25 12:28:34,840 - converter - INFO - [FFmpeg - Test_stream_1] Progress: frame=  165 fps= 10 q=-1.0 size=N/A time=00:00:16.50 bitrate=N/A speed=1.03x elapsed=0:00:15.98    frame=165
2025-05-25 12:28:35,354 - converter - INFO - [FFmpeg - Test_stream_1] Progress: frame=  170 fps= 10 q=-1.0 size=N/A time=00:00:17.00 bitrate=N/A speed=1.03x elapsed=0:00:16.49    frame=170
2025-05-25 12:28:35,867 - converter - INFO - [FFmpeg - Test_stream_1] Progress: frame=  176 fps= 10 q=-1.0 size=N/A time=00:00:17.50 bitrate=N/A speed=1.03x elapsed=0:00:17.00    frame=176
2025-05-25 12:28:36,398 - converter - INFO - [FFmpeg - Test_stream_1] Progress: frame=  181 fps= 10 q=-1.0 size=N/A time=00:00:18.10 bitrate=N/A speed=1.03x elapsed=0:00:17.53    frame=181
2025-05-25 12:28:36,913 - converter - INFO - [FFmpeg - Test_stream_1] Progress: frame=  186 fps= 10 q=-1.0 size=N/A time=00:00:18.60 bitrate=N/A speed=1.03x elapsed=0:00:18.05    frame=186
2025-05-25 12:28:37,428 - converter - INFO - [FFmpeg - Test_stream_1] Progress: frame=  191 fps= 10 q=-1.0 size=N/A time=00:00:19.10 bitrate=N/A speed=1.03x elapsed=0:00:18.56    frame=191
2025-05-25 12:28:37,943 - converter - INFO - [FFmpeg - Test_stream_1] Progress: frame=  196 fps= 10 q=-1.0 size=N/A time=00:00:19.60 bitrate=N/A speed=1.03x elapsed=0:00:19.08    frame=196
2025-05-25 12:28:38,025 - werkzeug - INFO - 127.0.0.1 - - [25/May/2025 12:28:38] "GET /api/streams HTTP/1.1" 200 -
2025-05-25 12:28:38,453 - converter - INFO - [FFmpeg - Test_stream_1] Progress: frame=  201 fps= 10 q=-1.0 size=N/A time=00:00:20.10 bitrate=N/A speed=1.03x elapsed=0:00:19.59    frame=201
2025-05-25 12:28:38,970 - converter - INFO - [FFmpeg - Test_stream_1] Progress: frame=  207 fps= 10 q=-1.0 size=N/A time=00:00:20.60 bitrate=N/A speed=1.02x elapsed=0:00:20.11    frame=207
2025-05-25 12:28:39,482 - converter - INFO - [FFmpeg - Test_stream_1] Progress: frame=  212 fps= 10 q=-1.0 size=N/A time=00:00:21.20 bitrate=N/A speed=1.03x elapsed=0:00:20.62    frame=212
2025-05-25 12:28:40,006 - converter - INFO - [FFmpeg - Test_stream_1] Progress: frame=  217 fps= 10 q=-1.0 size=N/A time=00:00:21.70 bitrate=N/A speed=1.03x elapsed=0:00:21.14    frame=217
2025-05-25 12:28:40,519 - converter - INFO - [FFmpeg - Test_stream_1] Progress: frame=  222 fps= 10 q=-1.0 size=N/A time=00:00:22.20 bitrate=N/A speed=1.02x elapsed=0:00:21.66    frame=222
2025-05-25 12:28:41,033 - converter - INFO - [FFmpeg - Test_stream_1] Progress: frame=  227 fps= 10 q=-1.0 size=N/A time=00:00:22.70 bitrate=N/A speed=1.02x elapsed=0:00:22.17    frame=227
2025-05-25 12:28:41,541 - converter - INFO - [FFmpeg - Test_stream_1] Progress: frame=  232 fps= 10 q=-1.0 size=N/A time=00:00:23.20 bitrate=N/A speed=1.02x elapsed=0:00:22.68    frame=232
2025-05-25 12:28:42,055 - converter - INFO - [FFmpeg - Test_stream_1] Progress: frame=  237 fps= 10 q=-1.0 size=N/A time=00:00:23.70 bitrate=N/A speed=1.02x elapsed=0:00:23.19    frame=237
2025-05-25 12:28:42,583 - converter - INFO - [FFmpeg - Test_stream_1] Progress: frame=  243 fps= 10 q=-1.0 size=N/A time=00:00:24.30 bitrate=N/A speed=1.02x elapsed=0:00:23.72    frame=243
2025-05-25 12:28:43,018 - werkzeug - INFO - 127.0.0.1 - - [25/May/2025 12:28:43] "GET /api/streams HTTP/1.1" 200 -
2025-05-25 12:28:43,093 - converter - INFO - [FFmpeg - Test_stream_1] Progress: frame=  248 fps= 10 q=-1.0 size=N/A time=00:00:24.80 bitrate=N/A speed=1.02x elapsed=0:00:24.23    frame=248
2025-05-25 12:28:43,609 - converter - INFO - [FFmpeg - Test_stream_1] Progress: frame=  253 fps= 10 q=-1.0 size=N/A time=00:00:25.30 bitrate=N/A speed=1.02x elapsed=0:00:24.75    frame=253
2025-05-25 12:28:44,126 - converter - INFO - [FFmpeg - Test_stream_1] Progress: frame=  258 fps= 10 q=-1.0 size=N/A time=00:00:25.80 bitrate=N/A speed=1.02x elapsed=0:00:25.26    frame=258
2025-05-25 12:28:44,637 - converter - INFO - [FFmpeg - Test_stream_1] Progress: frame=  263 fps= 10 q=-1.0 size=N/A time=00:00:26.30 bitrate=N/A speed=1.02x elapsed=0:00:25.77    frame=263
2025-05-25 12:28:45,151 - converter - INFO - [FFmpeg - Test_stream_1] Progress: frame=  268 fps= 10 q=-1.0 size=N/A time=00:00:26.80 bitrate=N/A speed=1.02x elapsed=0:00:26.29    frame=268
2025-05-25 12:28:45,666 - converter - INFO - [FFmpeg - Test_stream_1] Progress: frame=  274 fps= 10 q=-1.0 size=N/A time=00:00:27.30 bitrate=N/A speed=1.02x elapsed=0:00:26.80    frame=274
2025-05-25 12:28:46,194 - converter - INFO - [FFmpeg - Test_stream_1] Progress: frame=  279 fps= 10 q=-1.0 size=N/A time=00:00:27.90 bitrate=N/A speed=1.02x elapsed=0:00:27.33    frame=279
2025-05-25 12:28:46,706 - converter - INFO - [FFmpeg - Test_stream_1] Progress: frame=  284 fps= 10 q=-1.0 size=N/A time=00:00:28.40 bitrate=N/A speed=1.02x elapsed=0:00:27.84    frame=284
2025-05-25 12:28:47,219 - converter - INFO - [FFmpeg - Test_stream_1] Progress: frame=  289 fps= 10 q=-1.0 size=N/A time=00:00:28.90 bitrate=N/A speed=1.02x elapsed=0:00:28.36    frame=289
2025-05-25 12:28:47,733 - converter - INFO - [FFmpeg - Test_stream_1] Progress: frame=  294 fps= 10 q=-1.0 size=N/A time=00:00:29.40 bitrate=N/A speed=1.02x elapsed=0:00:28.87    frame=294
2025-05-25 12:28:48,019 - werkzeug - INFO - 127.0.0.1 - - [25/May/2025 12:28:48] "GET /api/streams HTTP/1.1" 200 -
2025-05-25 12:28:48,249 - converter - INFO - [FFmpeg - Test_stream_1] Progress: frame=  299 fps= 10 q=-1.0 size=N/A time=00:00:29.90 bitrate=N/A speed=1.02x elapsed=0:00:29.38    frame=299
2025-05-25 12:28:48,763 - converter - INFO - [FFmpeg - Test_stream_1] Progress: frame=  305 fps= 10 q=-1.0 size=N/A time=00:00:30.40 bitrate=N/A speed=1.02x elapsed=0:00:29.90    frame=305
2025-05-25 12:28:49,278 - converter - INFO - [FFmpeg - Test_stream_1] Progress: frame=  310 fps= 10 q=-1.0 size=N/A time=00:00:31.00 bitrate=N/A speed=1.02x elapsed=0:00:30.41    frame=310
2025-05-25 12:28:49,793 - converter - INFO - [FFmpeg - Test_stream_1] Progress: frame=  315 fps= 10 q=-1.0 size=N/A time=00:00:31.50 bitrate=N/A speed=1.02x elapsed=0:00:30.93    frame=315
2025-05-25 12:28:50,306 - converter - INFO - [FFmpeg - Test_stream_1] Progress: frame=  320 fps= 10 q=-1.0 size=N/A time=00:00:32.00 bitrate=N/A speed=1.02x elapsed=0:00:31.44    frame=320
2025-05-25 12:28:50,832 - converter - INFO - [FFmpeg - Test_stream_1] Progress: frame=  325 fps= 10 q=-1.0 size=N/A time=00:00:32.50 bitrate=N/A speed=1.02x elapsed=0:00:31.97    frame=325
2025-05-25 12:28:51,346 - converter - INFO - [FFmpeg - Test_stream_1] Progress: frame=  330 fps= 10 q=-1.0 size=N/A time=00:00:33.00 bitrate=N/A speed=1.02x elapsed=0:00:32.48    frame=330
2025-05-25 12:28:51,860 - converter - INFO - [FFmpeg - Test_stream_1] Progress: frame=  335 fps= 10 q=-1.0 size=N/A time=00:00:33.50 bitrate=N/A speed=1.02x elapsed=0:00:33.00    frame=335
2025-05-25 12:28:52,370 - converter - INFO - [FFmpeg - Test_stream_1] Progress: frame=  341 fps= 10 q=-1.0 size=N/A time=00:00:34.00 bitrate=N/A speed=1.01x elapsed=0:00:33.51    frame=341
2025-05-25 12:28:52,896 - converter - INFO - [FFmpeg - Test_stream_1] Progress: frame=  346 fps= 10 q=-1.0 size=N/A time=00:00:34.60 bitrate=N/A speed=1.02x elapsed=0:00:34.03    frame=346
2025-05-25 12:28:53,024 - werkzeug - INFO - 127.0.0.1 - - [25/May/2025 12:28:53] "GET /api/streams HTTP/1.1" 200 -
2025-05-25 12:28:53,407 - converter - INFO - [FFmpeg - Test_stream_1] Progress: frame=  351 fps= 10 q=-1.0 size=N/A time=00:00:35.10 bitrate=N/A speed=1.02x elapsed=0:00:34.54    frame=351
2025-05-25 12:28:53,925 - converter - INFO - [FFmpeg - Test_stream_1] Progress: frame=  356 fps= 10 q=-1.0 size=N/A time=00:00:35.60 bitrate=N/A speed=1.02x elapsed=0:00:35.06    frame=356
2025-05-25 12:28:54,438 - converter - INFO - [FFmpeg - Test_stream_1] Progress: frame=  361 fps= 10 q=-1.0 size=N/A time=00:00:36.10 bitrate=N/A speed=1.01x elapsed=0:00:35.57    frame=361
2025-05-25 12:28:54,948 - converter - INFO - [FFmpeg - Test_stream_1] Progress: frame=  366 fps= 10 q=-1.0 size=N/A time=00:00:36.60 bitrate=N/A speed=1.01x elapsed=0:00:36.08    frame=366
2025-05-25 12:28:55,464 - converter - INFO - [FFmpeg - Test_stream_1] Progress: frame=  372 fps= 10 q=-1.0 size=N/A time=00:00:37.10 bitrate=N/A speed=1.01x elapsed=0:00:36.60    frame=372
2025-05-25 12:28:55,987 - converter - INFO - [FFmpeg - Test_stream_1] Progress: frame=  377 fps= 10 q=-1.0 size=N/A time=00:00:37.70 bitrate=N/A speed=1.02x elapsed=0:00:37.12    frame=377
2025-05-25 12:28:56,500 - converter - INFO - [FFmpeg - Test_stream_1] Progress: frame=  382 fps= 10 q=-1.0 size=N/A time=00:00:38.20 bitrate=N/A speed=1.01x elapsed=0:00:37.64    frame=382
2025-05-25 12:28:57,013 - converter - INFO - [FFmpeg - Test_stream_1] Progress: frame=  387 fps= 10 q=-1.0 size=N/A time=00:00:38.70 bitrate=N/A speed=1.01x elapsed=0:00:38.15    frame=387
2025-05-25 12:28:57,527 - converter - INFO - [FFmpeg - Test_stream_1] Progress: frame=  392 fps= 10 q=-1.0 size=N/A time=00:00:39.20 bitrate=N/A speed=1.01x elapsed=0:00:38.66    frame=392
2025-05-25 12:28:58,029 - werkzeug - INFO - 127.0.0.1 - - [25/May/2025 12:28:58] "GET /api/streams HTTP/1.1" 200 -
2025-05-25 12:28:58,041 - converter - INFO - [FFmpeg - Test_stream_1] Progress: frame=  397 fps= 10 q=-1.0 size=N/A time=00:00:39.70 bitrate=N/A speed=1.01x elapsed=0:00:39.18    frame=397
2025-05-25 12:28:58,567 - converter - INFO - [FFmpeg - Test_stream_1] Progress: frame=  403 fps= 10 q=-1.0 size=N/A time=00:00:40.20 bitrate=N/A speed=1.01x elapsed=0:00:39.70    frame=403
2025-05-25 12:28:59,082 - converter - INFO - [FFmpeg - Test_stream_1] Progress: frame=  408 fps= 10 q=-1.0 size=N/A time=00:00:40.80 bitrate=N/A speed=1.01x elapsed=0:00:40.22    frame=408
2025-05-25 12:28:59,595 - converter - INFO - [FFmpeg - Test_stream_1] Progress: frame=  413 fps= 10 q=-1.0 size=N/A time=00:00:41.30 bitrate=N/A speed=1.01x elapsed=0:00:40.73    frame=413
2025-05-25 12:29:00,105 - converter - INFO - [FFmpeg - Test_stream_1] Progress: frame=  418 fps= 10 q=-1.0 size=N/A time=00:00:41.80 bitrate=N/A speed=1.01x elapsed=0:00:41.24    frame=418
2025-05-25 12:29:00,630 - converter - INFO - [FFmpeg - Test_stream_1] Progress: frame=  423 fps= 10 q=-1.0 size=N/A time=00:00:42.30 bitrate=N/A speed=1.01x elapsed=0:00:41.76    frame=423
2025-05-25 12:29:01,143 - converter - INFO - [FFmpeg - Test_stream_1] Progress: frame=  428 fps= 10 q=-1.0 size=N/A time=00:00:42.80 bitrate=N/A speed=1.01x elapsed=0:00:42.28    frame=428
2025-05-25 12:29:01,632 - __main__ - INFO - Adding stream 'Test_stream_2' with RTSP port 8555
2025-05-25 12:29:01,632 - converter - INFO - Added stream 'Test_stream_2': rtmp://localhost:1936/live/stream2 -> rtsp://localhost:8555/Test_stream_2
2025-05-25 12:29:01,633 - converter - INFO - Starting stream 'Test_stream_2' with command: ffmpeg -re -i rtmp://localhost:1936/live/stream2 -c:v copy -c:a copy -f rtsp -rtsp_transport tcp -progress pipe:2 rtsp://localhost:8555/Test_stream_2
2025-05-25 12:29:01,638 - converter - INFO - Stream 'Test_stream_2' started. Access via: rtsp://localhost:8555/Test_stream_2
2025-05-25 12:29:01,639 - werkzeug - INFO - 127.0.0.1 - - [25/May/2025 12:29:01] "POST /api/streams HTTP/1.1" 200 -
2025-05-25 12:29:01,647 - werkzeug - INFO - 127.0.0.1 - - [25/May/2025 12:29:01] "GET /api/streams HTTP/1.1" 200 -
2025-05-25 12:29:01,658 - converter - INFO - [FFmpeg - Test_stream_1] Progress: frame=  433 fps= 10 q=-1.0 size=N/A time=00:00:43.30 bitrate=N/A speed=1.01x elapsed=0:00:42.79    frame=433
2025-05-25 12:29:02,174 - converter - INFO - [FFmpeg - Test_stream_1] Progress: frame=  439 fps= 10 q=-1.0 size=N/A time=00:00:43.80 bitrate=N/A speed=1.01x elapsed=0:00:43.31    frame=439
2025-05-25 12:29:02,692 - converter - INFO - [FFmpeg - Test_stream_1] Progress: frame=  444 fps= 10 q=-1.0 size=N/A time=00:00:44.40 bitrate=N/A speed=1.01x elapsed=0:00:43.83    frame=444
2025-05-25 12:29:03,017 - werkzeug - INFO - 127.0.0.1 - - [25/May/2025 12:29:03] "GET /api/streams HTTP/1.1" 200 -
2025-05-25 12:29:03,205 - converter - INFO - [FFmpeg - Test_stream_1] Progress: frame=  449 fps= 10 q=-1.0 size=N/A time=00:00:44.90 bitrate=N/A speed=1.01x elapsed=0:00:44.34    frame=449
2025-05-25 12:29:03,718 - converter - INFO - [FFmpeg - Test_stream_1] Progress: frame=  454 fps= 10 q=-1.0 size=N/A time=00:00:45.40 bitrate=N/A speed=1.01x elapsed=0:00:44.85    frame=454
2025-05-25 12:29:04,232 - converter - INFO - [FFmpeg - Test_stream_1] Progress: frame=  459 fps= 10 q=-1.0 size=N/A time=00:00:45.90 bitrate=N/A speed=1.01x elapsed=0:00:45.37    frame=459
2025-05-25 12:29:04,447 - converter - INFO - [FFmpeg - Test_stream_2] Progress: frame=    0 fps=0.0 q=-1.0 size=N/A time=N/A bitrate=N/A speed=N/A elapsed=0:00:00.50    frame=0
2025-05-25 12:29:04,757 - converter - INFO - [FFmpeg - Test_stream_1] Progress: frame=  464 fps= 10 q=-1.0 size=N/A time=00:00:46.40 bitrate=N/A speed=1.01x elapsed=0:00:45.89    frame=464
2025-05-25 12:29:04,976 - converter - INFO - [FFmpeg - Test_stream_2] Progress: frame=    0 fps=0.0 q=-1.0 size=N/A time=N/A bitrate=N/A speed=N/A elapsed=0:00:01.03    frame=0
2025-05-25 12:29:05,273 - converter - INFO - [FFmpeg - Test_stream_1] Progress: frame=  470 fps= 10 q=-1.0 size=N/A time=00:00:47.00 bitrate=N/A speed=1.01x elapsed=0:00:46.41    frame=470
2025-05-25 12:29:05,477 - converter - INFO - [FFmpeg - Test_stream_2] Progress: frame=    0 fps=0.0 q=-1.0 size=N/A time=N/A bitrate=N/A speed=N/A elapsed=0:00:01.53    frame=0
2025-05-25 12:29:05,804 - converter - INFO - [FFmpeg - Test_stream_1] Progress: frame=  475 fps= 10 q=-1.0 size=N/A time=00:00:47.50 bitrate=N/A speed=1.01x elapsed=0:00:46.94    frame=475
2025-05-25 12:29:06,006 - converter - INFO - [FFmpeg - Test_stream_2] Progress: frame=    2 fps=1.0 q=-1.0 size=N/A time=00:00:01.02 bitrate=N/A speed=0.495x elapsed=0:00:02.06    frame=2
2025-05-25 12:29:06,334 - converter - INFO - [FFmpeg - Test_stream_1] Progress: frame=  480 fps= 10 q=-1.0 size=N/A time=00:00:48.00 bitrate=N/A speed=1.01x elapsed=0:00:47.47    frame=480
2025-05-25 12:29:06,519 - converter - INFO - [FFmpeg - Test_stream_2] Progress: frame=   18 fps=7.0 q=-1.0 size=N/A time=00:00:01.53 bitrate=N/A speed=0.595x elapsed=0:00:02.57    frame=18
2025-05-25 12:29:06,843 - converter - INFO - [FFmpeg - Test_stream_1] Progress: frame=  485 fps= 10 q=-1.0 size=N/A time=00:00:48.50 bitrate=N/A speed=1.01x elapsed=0:00:47.98    frame=485
2025-05-25 12:29:07,029 - converter - INFO - [FFmpeg - Test_stream_2] Progress: frame=   34 fps= 11 q=-1.0 size=N/A time=00:00:02.09 bitrate=N/A speed=0.681x elapsed=0:00:03.08    frame=34
2025-05-25 12:29:07,366 - converter - INFO - [FFmpeg - Test_stream_1] Progress: frame=  490 fps= 10 q=-1.0 size=N/A time=00:00:49.00 bitrate=N/A speed=1.01x elapsed=0:00:48.50    frame=490
2025-05-25 12:29:07,553 - converter - INFO - [FFmpeg - Test_stream_2] Progress: frame=   50 fps= 14 q=-1.0 size=N/A time=00:00:02.63 bitrate=N/A speed=0.729x elapsed=0:00:03.60    frame=50
2025-05-25 12:29:07,878 - converter - INFO - [FFmpeg - Test_stream_1] Progress: frame=  496 fps= 10 q=-1.0 size=N/A time=00:00:49.60 bitrate=N/A speed=1.01x elapsed=0:00:49.01    frame=496
2025-05-25 12:29:08,023 - werkzeug - INFO - 127.0.0.1 - - [25/May/2025 12:29:08] "GET /api/streams HTTP/1.1" 200 -
2025-05-25 12:29:08,068 - converter - INFO - [FFmpeg - Test_stream_2] Progress: frame=   67 fps= 16 q=-1.0 size=N/A time=00:00:03.16 bitrate=N/A speed=0.768x elapsed=0:00:04.12    frame=67
2025-05-25 12:29:08,397 - converter - INFO - [FFmpeg - Test_stream_1] Progress: frame=  501 fps= 10 q=-1.0 size=N/A time=00:00:50.10 bitrate=N/A speed=1.01x elapsed=0:00:49.53    frame=501
2025-05-25 12:29:08,583 - converter - INFO - [FFmpeg - Test_stream_2] Progress: frame=   83 fps= 18 q=-1.0 size=N/A time=00:00:03.73 bitrate=N/A speed=0.805x elapsed=0:00:04.63    frame=83
2025-05-25 12:29:08,910 - converter - INFO - [FFmpeg - Test_stream_1] Progress: frame=  506 fps= 10 q=-1.0 size=N/A time=00:00:50.60 bitrate=N/A speed=1.01x elapsed=0:00:50.05    frame=506
2025-05-25 12:29:09,095 - converter - INFO - [FFmpeg - Test_stream_2] Progress: frame=   99 fps= 19 q=-1.0 size=N/A time=00:00:04.26 bitrate=N/A speed=0.828x elapsed=0:00:05.15    frame=99
2025-05-25 12:29:09,420 - converter - INFO - [FFmpeg - Test_stream_1] Progress: frame=  511 fps= 10 q=-1.0 size=N/A time=00:00:51.10 bitrate=N/A speed=1.01x elapsed=0:00:50.56    frame=511
2025-05-25 12:29:09,607 - converter - INFO - [FFmpeg - Test_stream_2] Progress: frame=  115 fps= 20 q=-1.0 size=N/A time=00:00:04.79 bitrate=N/A speed=0.847x elapsed=0:00:05.66    frame=115
2025-05-25 12:29:09,930 - converter - INFO - [FFmpeg - Test_stream_1] Progress: frame=  516 fps= 10 q=-1.0 size=N/A time=00:00:51.60 bitrate=N/A speed=1.01x elapsed=0:00:51.07    frame=516
2025-05-25 12:29:10,118 - converter - INFO - [FFmpeg - Test_stream_2] Progress: frame=  131 fps= 21 q=-1.0 size=N/A time=00:00:05.33 bitrate=N/A speed=0.864x elapsed=0:00:06.17    frame=131
2025-05-25 12:29:10,459 - converter - INFO - [FFmpeg - Test_stream_1] Progress: frame=  521 fps= 10 q=-1.0 size=N/A time=00:00:52.10 bitrate=N/A speed=1.01x elapsed=0:00:51.59    frame=521
2025-05-25 12:29:10,645 - converter - INFO - [FFmpeg - Test_stream_2] Progress: frame=  148 fps= 22 q=-1.0 size=N/A time=00:00:05.86 bitrate=N/A speed=0.875x elapsed=0:00:06.70    frame=148
2025-05-25 12:29:10,968 - converter - INFO - [FFmpeg - Test_stream_1] Progress: frame=  527 fps= 10 q=-1.0 size=N/A time=00:00:52.60 bitrate=N/A speed=1.01x elapsed=0:00:52.10    frame=527
2025-05-25 12:29:11,152 - converter - INFO - [FFmpeg - Test_stream_2] Progress: frame=  164 fps= 23 q=-1.0 size=N/A time=00:00:06.43 bitrate=N/A speed=0.892x elapsed=0:00:07.20    frame=164
2025-05-25 12:29:11,478 - converter - INFO - [FFmpeg - Test_stream_1] Progress: frame=  532 fps= 10 q=-1.0 size=N/A time=00:00:53.20 bitrate=N/A speed=1.01x elapsed=0:00:52.61    frame=532
2025-05-25 12:29:11,665 - converter - INFO - [FFmpeg - Test_stream_2] Progress: frame=  180 fps= 23 q=-1.0 size=N/A time=00:00:06.96 bitrate=N/A speed=0.902x elapsed=0:00:07.72    frame=180
2025-05-25 12:29:12,005 - converter - INFO - [FFmpeg - Test_stream_1] Progress: frame=  537 fps= 10 q=-1.0 size=N/A time=00:00:53.70 bitrate=N/A speed=1.01x elapsed=0:00:53.14    frame=537
2025-05-25 12:29:12,193 - converter - INFO - [FFmpeg - Test_stream_2] Progress: frame=  197 fps= 24 q=-1.0 size=N/A time=00:00:07.49 bitrate=N/A speed=0.909x elapsed=0:00:08.24    frame=197
2025-05-25 12:29:12,520 - converter - INFO - [FFmpeg - Test_stream_1] Progress: frame=  542 fps= 10 q=-1.0 size=N/A time=00:00:54.20 bitrate=N/A speed=1.01x elapsed=0:00:53.66    frame=542
2025-05-25 12:29:12,706 - converter - INFO - [FFmpeg - Test_stream_2] Progress: frame=  212 fps= 24 q=-1.0 size=N/A time=00:00:08.03 bitrate=N/A speed=0.917x elapsed=0:00:08.76    frame=212
2025-05-25 12:29:13,019 - werkzeug - INFO - 127.0.0.1 - - [25/May/2025 12:29:13] "GET /api/streams HTTP/1.1" 200 -
2025-05-25 12:29:13,033 - converter - INFO - [FFmpeg - Test_stream_1] Progress: frame=  547 fps= 10 q=-1.0 size=N/A time=00:00:54.70 bitrate=N/A speed=1.01x elapsed=0:00:54.17    frame=547
2025-05-25 12:29:13,220 - converter - INFO - [FFmpeg - Test_stream_2] Progress: frame=  229 fps= 25 q=-1.0 size=N/A time=00:00:08.56 bitrate=N/A speed=0.923x elapsed=0:00:09.27    frame=229
2025-05-25 12:29:13,544 - converter - INFO - [FFmpeg - Test_stream_1] Progress: frame=  552 fps= 10 q=-1.0 size=N/A time=00:00:55.20 bitrate=N/A speed=1.01x elapsed=0:00:54.68    frame=552
2025-05-25 12:29:13,731 - converter - INFO - [FFmpeg - Test_stream_2] Progress: frame=  245 fps= 25 q=-1.0 size=N/A time=00:00:09.13 bitrate=N/A speed=0.933x elapsed=0:00:09.78    frame=245
2025-05-25 12:29:14,058 - converter - INFO - [FFmpeg - Test_stream_1] Progress: frame=  557 fps= 10 q=-1.0 size=N/A time=00:00:55.70 bitrate=N/A speed=1.01x elapsed=0:00:55.19    frame=557
2025-05-25 12:29:14,244 - converter - INFO - [FFmpeg - Test_stream_2] Progress: frame=  261 fps= 25 q=-1.0 size=N/A time=00:00:09.66 bitrate=N/A speed=0.938x elapsed=0:00:10.30    frame=261
2025-05-25 12:29:14,572 - converter - INFO - [FFmpeg - Test_stream_1] Progress: frame=  563 fps= 10 q=-1.0 size=N/A time=00:00:56.20 bitrate=N/A speed=1.01x elapsed=0:00:55.71    frame=563
2025-05-25 12:29:14,759 - converter - INFO - [FFmpeg - Test_stream_2] Progress: frame=  277 fps= 26 q=-1.0 size=N/A time=00:00:10.19 bitrate=N/A speed=0.943x elapsed=0:00:10.81    frame=277
2025-05-25 12:29:15,100 - converter - INFO - [FFmpeg - Test_stream_1] Progress: frame=  568 fps= 10 q=-1.0 size=N/A time=00:00:56.80 bitrate=N/A speed=1.01x elapsed=0:00:56.24    frame=568
2025-05-25 12:29:15,286 - converter - INFO - [FFmpeg - Test_stream_2] Progress: frame=  294 fps= 26 q=-1.0 size=N/A time=00:00:10.76 bitrate=N/A speed=0.949x elapsed=0:00:11.34    frame=294
2025-05-25 12:29:15,614 - converter - INFO - [FFmpeg - Test_stream_1] Progress: frame=  573 fps= 10 q=-1.0 size=N/A time=00:00:57.30 bitrate=N/A speed=1.01x elapsed=0:00:56.75    frame=573
2025-05-25 12:29:15,799 - converter - INFO - [FFmpeg - Test_stream_2] Progress: frame=  310 fps= 26 q=-1.0 size=N/A time=00:00:11.29 bitrate=N/A speed=0.953x elapsed=0:00:11.85    frame=310
2025-05-25 12:29:16,122 - converter - INFO - [FFmpeg - Test_stream_1] Progress: frame=  578 fps= 10 q=-1.0 size=N/A time=00:00:57.80 bitrate=N/A speed=1.01x elapsed=0:00:57.26    frame=578
2025-05-25 12:29:16,309 - converter - INFO - [FFmpeg - Test_stream_2] Progress: frame=  327 fps= 26 q=-1.0 size=N/A time=00:00:11.83 bitrate=N/A speed=0.957x elapsed=0:00:12.36    frame=327
2025-05-25 12:29:16,634 - converter - INFO - [FFmpeg - Test_stream_1] Progress: frame=  583 fps= 10 q=-1.0 size=N/A time=00:00:58.30 bitrate=N/A speed=1.01x elapsed=0:00:57.77    frame=583
2025-05-25 12:29:16,834 - converter - INFO - [FFmpeg - Test_stream_2] Progress: frame=  343 fps= 27 q=-1.0 size=N/A time=00:00:12.39 bitrate=N/A speed=0.962x elapsed=0:00:12.89    frame=343
2025-05-25 12:29:17,158 - converter - INFO - [FFmpeg - Test_stream_1] Progress: frame=  588 fps= 10 q=-1.0 size=N/A time=00:00:58.80 bitrate=N/A speed=1.01x elapsed=0:00:58.29    frame=588
2025-05-25 12:29:17,344 - converter - INFO - [FFmpeg - Test_stream_2] Progress: frame=  359 fps= 27 q=-1.0 size=N/A time=00:00:12.93 bitrate=N/A speed=0.965x elapsed=0:00:13.40    frame=359
2025-05-25 12:29:17,670 - converter - INFO - [FFmpeg - Test_stream_1] Progress: frame=  594 fps= 10 q=-1.0 size=N/A time=00:00:59.30 bitrate=N/A speed=1.01x elapsed=0:00:58.81    frame=594
2025-05-25 12:29:17,854 - converter - INFO - [FFmpeg - Test_stream_2] Progress: frame=  375 fps= 27 q=-1.0 size=N/A time=00:00:13.46 bitrate=N/A speed=0.968x elapsed=0:00:13.91    frame=375
2025-05-25 12:29:18,017 - werkzeug - INFO - 127.0.0.1 - - [25/May/2025 12:29:18] "GET /api/streams HTTP/1.1" 200 -
2025-05-25 12:29:18,180 - converter - INFO - [FFmpeg - Test_stream_1] Progress: frame=  599 fps= 10 q=-1.0 size=N/A time=00:00:59.90 bitrate=N/A speed=1.01x elapsed=0:00:59.32    frame=599
2025-05-25 12:29:18,382 - converter - INFO - [FFmpeg - Test_stream_2] Progress: frame=  391 fps= 27 q=-1.0 size=N/A time=00:00:13.99 bitrate=N/A speed=0.97x elapsed=0:00:14.43    frame=391
2025-05-25 12:29:18,706 - converter - INFO - [FFmpeg - Test_stream_1] Progress: frame=  604 fps= 10 q=-1.0 size=N/A time=00:01:00.40 bitrate=N/A speed=1.01x elapsed=0:00:59.84    frame=604
2025-05-25 12:29:18,893 - converter - INFO - [FFmpeg - Test_stream_2] Progress: frame=  408 fps= 27 q=-1.0 size=N/A time=00:00:14.53 bitrate=N/A speed=0.972x elapsed=0:00:14.94    frame=408
2025-05-25 12:29:19,221 - converter - INFO - [FFmpeg - Test_stream_1] Progress: frame=  609 fps= 10 q=-1.0 size=N/A time=00:01:00.90 bitrate=N/A speed=1.01x elapsed=0:01:00.36    frame=609
2025-05-25 12:29:19,406 - converter - INFO - [FFmpeg - Test_stream_2] Progress: frame=  423 fps= 27 q=-1.0 size=N/A time=00:00:15.06 bitrate=N/A speed=0.974x elapsed=0:00:15.46    frame=423
2025-05-25 12:29:19,735 - converter - INFO - [FFmpeg - Test_stream_1] Progress: frame=  614 fps= 10 q=-1.0 size=N/A time=00:01:01.40 bitrate=N/A speed=1.01x elapsed=0:01:00.87    frame=614
2025-05-25 12:29:19,920 - converter - INFO - [FFmpeg - Test_stream_2] Progress: frame=  440 fps= 28 q=-1.0 size=N/A time=00:00:15.59 bitrate=N/A speed=0.976x elapsed=0:00:15.97    frame=440
2025-05-25 12:29:20,245 - converter - INFO - [FFmpeg - Test_stream_1] Progress: frame=  619 fps= 10 q=-1.0 size=N/A time=00:01:01.90 bitrate=N/A speed=1.01x elapsed=0:01:01.38    frame=619
2025-05-25 12:29:20,441 - converter - INFO - [FFmpeg - Test_stream_2] Progress: frame=  456 fps= 28 q=-1.0 size=N/A time=00:00:16.16 bitrate=N/A speed=0.98x elapsed=0:00:16.49    frame=456
2025-05-25 12:29:20,767 - converter - INFO - [FFmpeg - Test_stream_1] Progress: frame=  625 fps= 10 q=-1.0 size=N/A time=00:01:02.40 bitrate=N/A speed=1.01x elapsed=0:01:01.90    frame=625
2025-05-25 12:29:20,952 - converter - INFO - [FFmpeg - Test_stream_2] Progress: frame=  472 fps= 28 q=-1.0 size=N/A time=00:00:16.69 bitrate=N/A speed=0.982x elapsed=0:00:17.00    frame=472
2025-05-25 12:29:21,278 - converter - INFO - [FFmpeg - Test_stream_1] Progress: frame=  630 fps= 10 q=-1.0 size=N/A time=00:01:03.00 bitrate=N/A speed=1.01x elapsed=0:01:02.41    frame=630
2025-05-25 12:29:21,465 - converter - INFO - [FFmpeg - Test_stream_2] Progress: frame=  488 fps= 28 q=-1.0 size=N/A time=00:00:17.23 bitrate=N/A speed=0.984x elapsed=0:00:17.52    frame=488
2025-05-25 12:29:21,791 - converter - INFO - [FFmpeg - Test_stream_1] Progress: frame=  635 fps= 10 q=-1.0 size=N/A time=00:01:03.50 bitrate=N/A speed=1.01x elapsed=0:01:02.93    frame=635
2025-05-25 12:29:21,977 - converter - INFO - [FFmpeg - Test_stream_2] Progress: frame=  505 fps= 28 q=-1.0 size=N/A time=00:00:17.76 bitrate=N/A speed=0.985x elapsed=0:00:18.03    frame=505
2025-05-25 12:29:22,304 - converter - INFO - [FFmpeg - Test_stream_1] Progress: frame=  640 fps= 10 q=-1.0 size=N/A time=00:01:04.00 bitrate=N/A speed=1.01x elapsed=0:01:03.44    frame=640
2025-05-25 12:29:22,506 - converter - INFO - [FFmpeg - Test_stream_2] Progress: frame=  521 fps= 28 q=-1.0 size=N/A time=00:00:18.33 bitrate=N/A speed=0.988x elapsed=0:00:18.56    frame=521
2025-05-25 12:29:22,835 - converter - INFO - [FFmpeg - Test_stream_1] Progress: frame=  645 fps= 10 q=-1.0 size=N/A time=00:01:04.50 bitrate=N/A speed=1.01x elapsed=0:01:03.97    frame=645
2025-05-25 12:29:23,021 - converter - INFO - [FFmpeg - Test_stream_2] Progress: frame=  538 fps= 28 q=-1.0 size=N/A time=00:00:18.89 bitrate=N/A speed=0.991x elapsed=0:00:19.07    frame=538
2025-05-25 12:29:23,024 - werkzeug - INFO - 127.0.0.1 - - [25/May/2025 12:29:23] "GET /api/streams HTTP/1.1" 200 -
2025-05-25 12:29:23,349 - converter - INFO - [FFmpeg - Test_stream_1] Progress: frame=  650 fps= 10 q=-1.0 size=N/A time=00:01:05.00 bitrate=N/A speed=1.01x elapsed=0:01:04.48    frame=650
2025-05-25 12:29:23,536 - converter - INFO - [FFmpeg - Test_stream_2] Progress: frame=  554 fps= 28 q=-1.0 size=N/A time=00:00:19.43 bitrate=N/A speed=0.992x elapsed=0:00:19.59    frame=554
2025-05-25 12:29:23,859 - converter - INFO - [FFmpeg - Test_stream_1] Progress: frame=  655 fps= 10 q=-1.0 size=N/A time=00:01:05.50 bitrate=N/A speed=1.01x elapsed=0:01:04.99    frame=655
2025-05-25 12:29:24,044 - converter - INFO - [FFmpeg - Test_stream_2] Progress: frame=  570 fps= 28 q=-1.0 size=N/A time=00:00:19.96 bitrate=N/A speed=0.993x elapsed=0:00:20.10    frame=570
2025-05-25 12:29:24,370 - converter - INFO - [FFmpeg - Test_stream_1] Progress: frame=  661 fps= 10 q=-1.0 size=N/A time=00:01:06.00 bitrate=N/A speed=1.01x elapsed=0:01:05.51    frame=661
2025-05-25 12:29:24,557 - converter - INFO - [FFmpeg - Test_stream_2] Progress: frame=  586 fps= 28 q=-1.0 size=N/A time=00:00:20.49 bitrate=N/A speed=0.994x elapsed=0:00:20.61    frame=586
2025-05-25 12:29:24,883 - converter - INFO - [FFmpeg - Test_stream_1] Progress: frame=  666 fps= 10 q=-1.0 size=N/A time=00:01:06.60 bitrate=N/A speed=1.01x elapsed=0:01:06.02    frame=666
2025-05-25 12:29:25,071 - converter - INFO - [FFmpeg - Test_stream_2] Progress: frame=  602 fps= 28 q=-1.0 size=N/A time=00:00:21.03 bitrate=N/A speed=0.996x elapsed=0:00:21.12    frame=602
2025-05-25 12:29:25,413 - converter - INFO - [FFmpeg - Test_stream_1] Progress: frame=  671 fps= 10 q=-1.0 size=N/A time=00:01:07.10 bitrate=N/A speed=1.01x elapsed=0:01:06.55    frame=671
2025-05-25 12:29:25,600 - converter - INFO - [FFmpeg - Test_stream_2] Progress: frame=  619 fps= 29 q=-1.0 size=N/A time=00:00:21.56 bitrate=N/A speed=0.996x elapsed=0:00:21.65    frame=619
2025-05-25 12:29:25,926 - converter - INFO - [FFmpeg - Test_stream_1] Progress: frame=  676 fps= 10 q=-1.0 size=N/A time=00:01:07.60 bitrate=N/A speed=1.01x elapsed=0:01:07.06    frame=676
2025-05-25 12:29:26,110 - converter - INFO - [FFmpeg - Test_stream_2] Progress: frame=  635 fps= 29 q=-1.0 size=N/A time=00:00:22.09 bitrate=N/A speed=0.997x elapsed=0:00:22.16    frame=635
2025-05-25 12:29:26,436 - converter - INFO - [FFmpeg - Test_stream_1] Progress: frame=  681 fps= 10 q=-1.0 size=N/A time=00:01:08.10 bitrate=N/A speed=1.01x elapsed=0:01:07.57    frame=681
2025-05-25 12:29:26,623 - converter - INFO - [FFmpeg - Test_stream_2] Progress: frame=  651 fps= 29 q=-1.0 size=N/A time=00:00:22.63 bitrate=N/A speed=0.998x elapsed=0:00:22.67    frame=651
2025-05-25 12:29:26,949 - converter - INFO - [FFmpeg - Test_stream_1] Progress: frame=  686 fps= 10 q=-1.0 size=N/A time=00:01:08.60 bitrate=N/A speed=1.01x elapsed=0:01:08.09    frame=686
2025-05-25 12:29:27,137 - converter - INFO - [FFmpeg - Test_stream_2] Progress: frame=  667 fps= 29 q=-1.0 size=N/A time=00:00:23.19 bitrate=N/A speed=   1x elapsed=0:00:23.19    frame=667
2025-05-25 12:29:27,461 - converter - INFO - [FFmpeg - Test_stream_1] Progress: frame=  692 fps= 10 q=-1.0 size=N/A time=00:01:09.10 bitrate=N/A speed=1.01x elapsed=0:01:08.60    frame=692
2025-05-25 12:29:27,661 - converter - INFO - [FFmpeg - Test_stream_2] Progress: frame=  684 fps= 29 q=-1.0 size=N/A time=00:00:23.73 bitrate=N/A speed=   1x elapsed=0:00:23.71    frame=684
2025-05-25 12:29:27,985 - converter - INFO - [FFmpeg - Test_stream_1] Progress: frame=  697 fps= 10 q=-1.0 size=N/A time=00:01:09.70 bitrate=N/A speed=1.01x elapsed=0:01:09.12    frame=697
2025-05-25 12:29:28,017 - werkzeug - INFO - 127.0.0.1 - - [25/May/2025 12:29:28] "GET /api/streams HTTP/1.1" 200 -
2025-05-25 12:29:28,170 - converter - INFO - [FFmpeg - Test_stream_2] Progress: frame=  699 fps= 29 q=-1.0 size=N/A time=00:00:24.26 bitrate=N/A speed=   1x elapsed=0:00:24.22    frame=699
2025-05-25 12:29:28,496 - converter - INFO - [FFmpeg - Test_stream_1] Progress: frame=  702 fps= 10 q=-1.0 size=N/A time=00:01:10.20 bitrate=N/A speed=1.01x elapsed=0:01:09.63    frame=702
2025-05-25 12:29:28,683 - converter - INFO - [FFmpeg - Test_stream_2] Progress: frame=  716 fps= 29 q=-1.0 size=N/A time=00:00:24.83 bitrate=N/A speed=   1x elapsed=0:00:24.73    frame=716
2025-05-25 12:29:29,011 - converter - INFO - [FFmpeg - Test_stream_1] Progress: frame=  707 fps= 10 q=-1.0 size=N/A time=00:01:10.70 bitrate=N/A speed=1.01x elapsed=0:01:10.15    frame=707
2025-05-25 12:29:29,197 - converter - INFO - [FFmpeg - Test_stream_2] Progress: frame=  733 fps= 29 q=-1.0 size=N/A time=00:00:25.36 bitrate=N/A speed=   1x elapsed=0:00:25.25    frame=733
2025-05-25 12:29:29,523 - converter - INFO - [FFmpeg - Test_stream_1] Progress: frame=  712 fps= 10 q=-1.0 size=N/A time=00:01:11.20 bitrate=N/A speed=1.01x elapsed=0:01:10.66    frame=712
2025-05-25 12:29:29,725 - converter - INFO - [FFmpeg - Test_stream_2] Progress: frame=  749 fps= 29 q=-1.0 size=N/A time=00:00:25.93 bitrate=N/A speed=1.01x elapsed=0:00:25.78    frame=749
2025-05-25 12:29:30,049 - converter - INFO - [FFmpeg - Test_stream_1] Progress: frame=  717 fps= 10 q=-1.0 size=N/A time=00:01:11.70 bitrate=N/A speed=1.01x elapsed=0:01:11.18    frame=717
2025-05-25 12:29:30,236 - converter - INFO - [FFmpeg - Test_stream_2] Progress: frame=  765 fps= 29 q=-1.0 size=N/A time=00:00:26.46 bitrate=N/A speed=1.01x elapsed=0:00:26.29    frame=765
2025-05-25 12:29:30,562 - converter - INFO - [FFmpeg - Test_stream_1] Progress: frame=  723 fps= 10 q=-1.0 size=N/A time=00:01:12.30 bitrate=N/A speed=1.01x elapsed=0:01:11.70    frame=723
2025-05-25 12:29:30,746 - converter - INFO - [FFmpeg - Test_stream_2] Progress: frame=  781 fps= 29 q=-1.0 size=N/A time=00:00:26.99 bitrate=N/A speed=1.01x elapsed=0:00:26.80    frame=781
2025-05-25 12:29:31,083 - converter - INFO - [FFmpeg - Test_stream_1] Progress: frame=  728 fps= 10 q=-1.0 size=N/A time=00:01:12.80 bitrate=N/A speed=1.01x elapsed=0:01:12.22    frame=728
2025-05-25 12:29:31,267 - converter - INFO - [FFmpeg - Test_stream_2] Progress: frame=  797 fps= 29 q=-1.0 size=N/A time=00:00:27.53 bitrate=N/A speed=1.01x elapsed=0:00:27.32    frame=797
2025-05-25 12:29:31,595 - converter - INFO - [FFmpeg - Test_stream_1] Progress: frame=  733 fps= 10 q=-1.0 size=N/A time=00:01:13.30 bitrate=N/A speed=1.01x elapsed=0:01:12.73    frame=733
2025-05-25 12:29:31,782 - converter - INFO - [FFmpeg - Test_stream_2] Progress: frame=  813 fps= 29 q=-1.0 size=N/A time=00:00:28.06 bitrate=N/A speed=1.01x elapsed=0:00:27.83    frame=813
2025-05-25 12:29:32,110 - converter - INFO - [FFmpeg - Test_stream_1] Progress: frame=  738 fps= 10 q=-1.0 size=N/A time=00:01:13.80 bitrate=N/A speed=1.01x elapsed=0:01:13.25    frame=738
2025-05-25 12:29:32,299 - converter - INFO - [FFmpeg - Test_stream_2] Progress: frame=  829 fps= 29 q=-1.0 size=N/A time=00:00:28.59 bitrate=N/A speed=1.01x elapsed=0:00:28.35    frame=829
2025-05-25 12:29:32,624 - converter - INFO - [FFmpeg - Test_stream_1] Progress: frame=  743 fps= 10 q=-1.0 size=N/A time=00:01:14.30 bitrate=N/A speed=1.01x elapsed=0:01:13.76    frame=743
2025-05-25 12:29:32,811 - converter - INFO - [FFmpeg - Test_stream_2] Progress: frame=  845 fps= 29 q=-1.0 size=N/A time=00:00:29.13 bitrate=N/A speed=1.01x elapsed=0:00:28.86    frame=845
2025-05-25 12:29:33,033 - werkzeug - INFO - 127.0.0.1 - - [25/May/2025 12:29:33] "GET /api/streams HTTP/1.1" 200 -
2025-05-25 12:29:33,137 - converter - INFO - [FFmpeg - Test_stream_1] Progress: frame=  748 fps= 10 q=-1.0 size=N/A time=00:01:14.80 bitrate=N/A speed=1.01x elapsed=0:01:14.27    frame=748
2025-05-25 12:29:33,323 - converter - INFO - [FFmpeg - Test_stream_2] Progress: frame=  861 fps= 29 q=-1.0 size=N/A time=00:00:29.66 bitrate=N/A speed=1.01x elapsed=0:00:29.37    frame=861
2025-05-25 12:29:33,662 - converter - INFO - [FFmpeg - Test_stream_1] Progress: frame=  754 fps= 10 q=-1.0 size=N/A time=00:01:15.40 bitrate=N/A speed=1.01x elapsed=0:01:14.80    frame=754
2025-05-25 12:29:33,848 - converter - INFO - [FFmpeg - Test_stream_2] Progress: frame=  879 fps= 29 q=-1.0 size=N/A time=00:00:30.23 bitrate=N/A speed=1.01x elapsed=0:00:29.90    frame=879
2025-05-25 12:29:34,175 - converter - INFO - [FFmpeg - Test_stream_1] Progress: frame=  759 fps= 10 q=-1.0 size=N/A time=00:01:15.80 bitrate=N/A speed=1.01x elapsed=0:01:15.31    frame=759
2025-05-25 12:29:34,359 - converter - INFO - [FFmpeg - Test_stream_2] Progress: frame=  894 fps= 29 q=-1.0 size=N/A time=00:00:30.76 bitrate=N/A speed=1.01x elapsed=0:00:30.41    frame=894
2025-05-25 12:29:34,684 - converter - INFO - [FFmpeg - Test_stream_1] Progress: frame=  764 fps= 10 q=-1.0 size=N/A time=00:01:16.40 bitrate=N/A speed=1.01x elapsed=0:01:15.82    frame=764
2025-05-25 12:29:34,871 - converter - INFO - [FFmpeg - Test_stream_2] Progress: frame=  911 fps= 29 q=-1.0 size=N/A time=00:00:31.29 bitrate=N/A speed=1.01x elapsed=0:00:30.92    frame=911
2025-05-25 12:29:35,198 - converter - INFO - [FFmpeg - Test_stream_1] Progress: frame=  769 fps= 10 q=-1.0 size=N/A time=00:01:16.90 bitrate=N/A speed=1.01x elapsed=0:01:16.33    frame=769
2025-05-25 12:29:35,388 - converter - INFO - [FFmpeg - Test_stream_2] Progress: frame=  927 fps= 29 q=-1.0 size=N/A time=00:00:31.86 bitrate=N/A speed=1.01x elapsed=0:00:31.44    frame=927
2025-05-25 12:29:35,712 - converter - INFO - [FFmpeg - Test_stream_1] Progress: frame=  774 fps= 10 q=-1.0 size=N/A time=00:01:17.40 bitrate=N/A speed=1.01x elapsed=0:01:16.85    frame=774
2025-05-25 12:29:35,900 - converter - INFO - [FFmpeg - Test_stream_2] Progress: frame=  943 fps= 30 q=-1.0 size=N/A time=00:00:32.39 bitrate=N/A speed=1.01x elapsed=0:00:31.95    frame=943
2025-05-25 12:29:36,242 - converter - INFO - [FFmpeg - Test_stream_1] Progress: frame=  779 fps= 10 q=-1.0 size=N/A time=00:01:17.90 bitrate=N/A speed=1.01x elapsed=0:01:17.38    frame=779
2025-05-25 12:29:36,429 - converter - INFO - [FFmpeg - Test_stream_2] Progress: frame=  960 fps= 30 q=-1.0 size=N/A time=00:00:32.96 bitrate=N/A speed=1.01x elapsed=0:00:32.48    frame=960
2025-05-25 12:29:36,756 - converter - INFO - [FFmpeg - Test_stream_1] Progress: frame=  784 fps= 10 q=-1.0 size=N/A time=00:01:18.40 bitrate=N/A speed=1.01x elapsed=0:01:17.89    frame=784
2025-05-25 12:29:36,943 - converter - INFO - [FFmpeg - Test_stream_2] Progress: frame=  975 fps= 30 q=-1.0 size=N/A time=00:00:33.46 bitrate=N/A speed=1.01x elapsed=0:00:32.99    frame=975
2025-05-25 12:29:37,269 - converter - INFO - [FFmpeg - Test_stream_1] Progress: frame=  790 fps= 10 q=-1.0 size=N/A time=00:01:19.00 bitrate=N/A speed=1.01x elapsed=0:01:18.41    frame=790
2025-05-25 12:29:37,453 - converter - INFO - [FFmpeg - Test_stream_2] Progress: frame=  990 fps= 30 q=-1.0 size=N/A time=00:00:33.96 bitrate=N/A speed=1.01x elapsed=0:00:33.50    frame=990
2025-05-25 12:29:37,782 - converter - INFO - [FFmpeg - Test_stream_1] Progress: frame=  795 fps= 10 q=-1.0 size=N/A time=00:01:19.50 bitrate=N/A speed=1.01x elapsed=0:01:18.92    frame=795
2025-05-25 12:29:37,966 - converter - INFO - [FFmpeg - Test_stream_2] Progress: frame= 1006 fps= 30 q=-1.0 size=N/A time=00:00:34.49 bitrate=N/A speed=1.01x elapsed=0:00:34.02    frame=1006
2025-05-25 12:29:38,032 - werkzeug - INFO - 127.0.0.1 - - [25/May/2025 12:29:38] "GET /api/streams HTTP/1.1" 200 -
2025-05-25 12:29:38,292 - converter - INFO - [FFmpeg - Test_stream_1] Progress: frame=  800 fps= 10 q=-1.0 size=N/A time=00:01:20.00 bitrate=N/A speed=1.01x elapsed=0:01:19.43    frame=800
2025-05-25 12:29:38,479 - converter - INFO - [FFmpeg - Test_stream_2] Progress: frame= 1022 fps= 30 q=-1.0 size=N/A time=00:00:35.03 bitrate=N/A speed=1.01x elapsed=0:00:34.53    frame=1022
2025-05-25 12:29:38,820 - converter - INFO - [FFmpeg - Test_stream_1] Progress: frame=  805 fps= 10 q=-1.0 size=N/A time=00:01:20.50 bitrate=N/A speed=1.01x elapsed=0:01:19.96    frame=805
2025-05-25 12:29:39,006 - converter - INFO - [FFmpeg - Test_stream_2] Progress: frame= 1037 fps= 30 q=-1.0 size=N/A time=00:00:35.53 bitrate=N/A speed=1.01x elapsed=0:00:35.06    frame=1037
2025-05-25 12:29:39,348 - converter - INFO - [FFmpeg - Test_stream_1] Progress: frame=  810 fps= 10 q=-1.0 size=N/A time=00:01:21.00 bitrate=N/A speed=1.01x elapsed=0:01:20.48    frame=810
2025-05-25 12:29:39,520 - converter - INFO - [FFmpeg - Test_stream_2] Progress: frame= 1053 fps= 30 q=-1.0 size=N/A time=00:00:36.06 bitrate=N/A speed=1.01x elapsed=0:00:35.57    frame=1053
2025-05-25 12:29:39,859 - converter - INFO - [FFmpeg - Test_stream_1] Progress: frame=  815 fps= 10 q=-1.0 size=N/A time=00:01:21.50 bitrate=N/A speed=1.01x elapsed=0:01:20.99    frame=815
2025-05-25 12:29:40,030 - converter - INFO - [FFmpeg - Test_stream_2] Progress: frame= 1068 fps= 30 q=-1.0 size=N/A time=00:00:36.56 bitrate=N/A speed=1.01x elapsed=0:00:36.08    frame=1068
2025-05-25 12:29:40,371 - converter - INFO - [FFmpeg - Test_stream_1] Progress: frame=  821 fps= 10 q=-1.0 size=N/A time=00:01:22.00 bitrate=N/A speed=1.01x elapsed=0:01:21.51    frame=821
2025-05-25 12:29:40,540 - converter - INFO - [FFmpeg - Test_stream_2] Progress: frame= 1084 fps= 30 q=-1.0 size=N/A time=00:00:37.06 bitrate=N/A speed=1.01x elapsed=0:00:36.59    frame=1084
2025-05-25 12:29:40,897 - converter - INFO - [FFmpeg - Test_stream_1] Progress: frame=  826 fps= 10 q=-1.0 size=N/A time=00:01:22.60 bitrate=N/A speed=1.01x elapsed=0:01:22.03    frame=826
2025-05-25 12:29:41,069 - converter - INFO - [FFmpeg - Test_stream_2] Progress: frame= 1099 fps= 30 q=-1.0 size=N/A time=00:00:37.59 bitrate=N/A speed=1.01x elapsed=0:00:37.12    frame=1099
2025-05-25 12:29:41,412 - converter - INFO - [FFmpeg - Test_stream_1] Progress: frame=  831 fps= 10 q=-1.0 size=N/A time=00:01:23.10 bitrate=N/A speed=1.01x elapsed=0:01:22.55    frame=831
2025-05-25 12:29:41,580 - converter - INFO - [FFmpeg - Test_stream_2] Progress: frame= 1114 fps= 30 q=-1.0 size=N/A time=00:00:38.09 bitrate=N/A speed=1.01x elapsed=0:00:37.63    frame=1114
2025-05-25 12:29:41,921 - converter - INFO - [FFmpeg - Test_stream_1] Progress: frame=  836 fps= 10 q=-1.0 size=N/A time=00:01:23.60 bitrate=N/A speed=1.01x elapsed=0:01:23.06    frame=836
2025-05-25 12:29:42,092 - converter - INFO - [FFmpeg - Test_stream_2] Progress: frame= 1130 fps= 30 q=-1.0 size=N/A time=00:00:38.63 bitrate=N/A speed=1.01x elapsed=0:00:38.14    frame=1130
2025-05-25 12:29:42,435 - converter - INFO - [FFmpeg - Test_stream_1] Progress: frame=  841 fps= 10 q=-1.0 size=N/A time=00:01:24.10 bitrate=N/A speed=1.01x elapsed=0:01:23.57    frame=841
2025-05-25 12:29:42,605 - converter - INFO - [FFmpeg - Test_stream_2] Progress: frame= 1146 fps= 30 q=-1.0 size=N/A time=00:00:39.13 bitrate=N/A speed=1.01x elapsed=0:00:38.66    frame=1146
2025-05-25 12:29:42,959 - converter - INFO - [FFmpeg - Test_stream_1] Progress: frame=  846 fps= 10 q=-1.0 size=N/A time=00:01:24.60 bitrate=N/A speed=1.01x elapsed=0:01:24.10    frame=846
2025-05-25 12:29:43,025 - werkzeug - INFO - 127.0.0.1 - - [25/May/2025 12:29:43] "GET /api/streams HTTP/1.1" 200 -
2025-05-25 12:29:43,130 - converter - INFO - [FFmpeg - Test_stream_2] Progress: frame= 1162 fps= 30 q=-1.0 size=N/A time=00:00:39.66 bitrate=N/A speed=1.01x elapsed=0:00:39.18    frame=1162
2025-05-25 12:29:43,472 - converter - INFO - [FFmpeg - Test_stream_1] Progress: frame=  852 fps= 10 q=-1.0 size=N/A time=00:01:25.20 bitrate=N/A speed=1.01x elapsed=0:01:24.61    frame=852
2025-05-25 12:29:43,644 - converter - INFO - [FFmpeg - Test_stream_2] Progress: frame= 1176 fps= 30 q=-1.0 size=N/A time=00:00:40.16 bitrate=N/A speed=1.01x elapsed=0:00:39.69    frame=1176
2025-05-25 12:29:43,983 - converter - INFO - [FFmpeg - Test_stream_1] Progress: frame=  857 fps= 10 q=-1.0 size=N/A time=00:01:25.70 bitrate=N/A speed=1.01x elapsed=0:01:25.12    frame=857
2025-05-25 12:29:44,157 - converter - INFO - [FFmpeg - Test_stream_2] Progress: frame= 1192 fps= 30 q=-1.0 size=N/A time=00:00:40.69 bitrate=N/A speed=1.01x elapsed=0:00:40.21    frame=1192
2025-05-25 12:29:44,500 - converter - INFO - [FFmpeg - Test_stream_1] Progress: frame=  862 fps= 10 q=-1.0 size=N/A time=00:01:26.20 bitrate=N/A speed=1.01x elapsed=0:01:25.64    frame=862
2025-05-25 12:29:44,669 - converter - INFO - [FFmpeg - Test_stream_2] Progress: frame= 1208 fps= 30 q=-1.0 size=N/A time=00:00:41.19 bitrate=N/A speed=1.01x elapsed=0:00:40.72    frame=1208
2025-05-25 12:29:45,024 - converter - INFO - [FFmpeg - Test_stream_1] Progress: frame=  867 fps= 10 q=-1.0 size=N/A time=00:01:26.70 bitrate=N/A speed=1.01x elapsed=0:01:26.16    frame=867
2025-05-25 12:29:45,181 - converter - INFO - [FFmpeg - Test_stream_2] Progress: frame= 1223 fps= 30 q=-1.0 size=N/A time=00:00:41.69 bitrate=N/A speed=1.01x elapsed=0:00:41.23    frame=1223
2025-05-25 12:29:45,540 - converter - INFO - [FFmpeg - Test_stream_1] Progress: frame=  872 fps= 10 q=-1.0 size=N/A time=00:01:27.20 bitrate=N/A speed=1.01x elapsed=0:01:26.68    frame=872
2025-05-25 12:29:45,695 - converter - INFO - [FFmpeg - Test_stream_2] Progress: frame= 1238 fps= 30 q=-1.0 size=N/A time=00:00:42.23 bitrate=N/A speed=1.01x elapsed=0:00:41.75    frame=1238
2025-05-25 12:29:46,068 - converter - INFO - [FFmpeg - Test_stream_1] Progress: frame=  878 fps= 10 q=-1.0 size=N/A time=00:01:27.70 bitrate=N/A speed=1.01x elapsed=0:01:27.20    frame=878
2025-05-25 12:29:46,223 - converter - INFO - [FFmpeg - Test_stream_2] Progress: frame= 1254 fps= 30 q=-1.0 size=N/A time=00:00:42.76 bitrate=N/A speed=1.01x elapsed=0:00:42.27    frame=1254
2025-05-25 12:29:46,583 - converter - INFO - [FFmpeg - Test_stream_1] Progress: frame=  883 fps= 10 q=-1.0 size=N/A time=00:01:28.30 bitrate=N/A speed=1.01x elapsed=0:01:27.72    frame=883
2025-05-25 12:29:46,736 - converter - INFO - [FFmpeg - Test_stream_2] Progress: frame= 1270 fps= 30 q=-1.0 size=N/A time=00:00:43.26 bitrate=N/A speed=1.01x elapsed=0:00:42.79    frame=1270
2025-05-25 12:29:47,096 - converter - INFO - [FFmpeg - Test_stream_1] Progress: frame=  888 fps= 10 q=-1.0 size=N/A time=00:01:28.80 bitrate=N/A speed=1.01x elapsed=0:01:28.23    frame=888
2025-05-25 12:29:47,253 - converter - INFO - [FFmpeg - Test_stream_2] Progress: frame= 1285 fps= 30 q=-1.0 size=N/A time=00:00:43.76 bitrate=N/A speed=1.01x elapsed=0:00:43.30    frame=1285
2025-05-25 12:29:47,609 - converter - INFO - [FFmpeg - Test_stream_1] Progress: frame=  893 fps= 10 q=-1.0 size=N/A time=00:01:29.30 bitrate=N/A speed=1.01x elapsed=0:01:28.74    frame=893
2025-05-25 12:29:47,765 - converter - INFO - [FFmpeg - Test_stream_2] Progress: frame= 1300 fps= 30 q=-1.0 size=N/A time=00:00:44.29 bitrate=N/A speed=1.01x elapsed=0:00:43.82    frame=1300
2025-05-25 12:29:48,033 - werkzeug - INFO - 127.0.0.1 - - [25/May/2025 12:29:48] "GET /api/streams HTTP/1.1" 200 -
2025-05-25 12:29:48,122 - converter - INFO - [FFmpeg - Test_stream_1] Progress: frame=  898 fps= 10 q=-1.0 size=N/A time=00:01:29.80 bitrate=N/A speed=1.01x elapsed=0:01:29.26    frame=898
2025-05-25 12:29:48,280 - converter - INFO - [FFmpeg - Test_stream_2] Progress: frame= 1316 fps= 30 q=-1.0 size=N/A time=00:00:44.83 bitrate=N/A speed=1.01x elapsed=0:00:44.33    frame=1316
2025-05-25 12:29:48,637 - converter - INFO - [FFmpeg - Test_stream_1] Progress: frame=  903 fps= 10 q=-1.0 size=N/A time=00:01:30.30 bitrate=N/A speed=1.01x elapsed=0:01:29.77    frame=903
2025-05-25 12:29:48,791 - converter - INFO - [FFmpeg - Test_stream_2] Progress: frame= 1331 fps= 30 q=-1.0 size=N/A time=00:00:45.33 bitrate=N/A speed=1.01x elapsed=0:00:44.84    frame=1331
2025-05-25 12:29:49,159 - converter - INFO - [FFmpeg - Test_stream_1] Progress: frame=  908 fps= 10 q=-1.0 size=N/A time=00:01:30.80 bitrate=N/A speed=1.01x elapsed=0:01:30.30    frame=908
2025-05-25 12:29:49,316 - converter - INFO - [FFmpeg - Test_stream_2] Progress: frame= 1346 fps= 30 q=-1.0 size=N/A time=00:00:45.83 bitrate=N/A speed=1.01x elapsed=0:00:45.37    frame=1346
2025-05-25 12:29:49,674 - converter - INFO - [FFmpeg - Test_stream_1] Progress: frame=  914 fps= 10 q=-1.0 size=N/A time=00:01:31.30 bitrate=N/A speed=1.01x elapsed=0:01:30.81    frame=914
2025-05-25 12:29:49,830 - converter - INFO - [FFmpeg - Test_stream_2] Progress: frame= 1362 fps= 30 q=-1.0 size=N/A time=00:00:46.36 bitrate=N/A speed=1.01x elapsed=0:00:45.88    frame=1362
2025-05-25 12:29:50,187 - converter - INFO - [FFmpeg - Test_stream_1] Progress: frame=  919 fps= 10 q=-1.0 size=N/A time=00:01:31.90 bitrate=N/A speed=1.01x elapsed=0:01:31.32    frame=919
2025-05-25 12:29:50,343 - converter - INFO - [FFmpeg - Test_stream_2] Progress: frame= 1378 fps= 30 q=-1.0 size=N/A time=00:00:46.89 bitrate=N/A speed=1.01x elapsed=0:00:46.39    frame=1378
2025-05-25 12:29:50,701 - converter - INFO - [FFmpeg - Test_stream_1] Progress: frame=  924 fps= 10 q=-1.0 size=N/A time=00:01:32.40 bitrate=N/A speed=1.01x elapsed=0:01:31.84    frame=924
2025-05-25 12:29:50,857 - converter - INFO - [FFmpeg - Test_stream_2] Progress: frame= 1393 fps= 30 q=-1.0 size=N/A time=00:00:47.39 bitrate=N/A speed=1.01x elapsed=0:00:46.91    frame=1393
2025-05-25 12:29:51,217 - converter - INFO - [FFmpeg - Test_stream_1] Progress: frame=  929 fps= 10 q=-1.0 size=N/A time=00:01:32.90 bitrate=N/A speed=1.01x elapsed=0:01:32.35    frame=929
2025-05-25 12:29:51,372 - converter - INFO - [FFmpeg - Test_stream_2] Progress: frame= 1409 fps= 30 q=-1.0 size=N/A time=00:00:47.89 bitrate=N/A speed=1.01x elapsed=0:00:47.42    frame=1409
2025-05-25 12:29:51,728 - converter - INFO - [FFmpeg - Test_stream_1] Progress: frame=  934 fps= 10 q=-1.0 size=N/A time=00:01:33.40 bitrate=N/A speed=1.01x elapsed=0:01:32.86    frame=934
2025-05-25 12:29:51,897 - converter - INFO - [FFmpeg - Test_stream_2] Progress: frame= 1424 fps= 30 q=-1.0 size=N/A time=00:00:48.43 bitrate=N/A speed=1.01x elapsed=0:00:47.95    frame=1424
2025-05-25 12:29:52,254 - converter - INFO - [FFmpeg - Test_stream_1] Progress: frame=  939 fps= 10 q=-1.0 size=N/A time=00:01:33.90 bitrate=N/A speed=1.01x elapsed=0:01:33.39    frame=939
2025-05-25 12:29:52,410 - converter - INFO - [FFmpeg - Test_stream_2] Progress: frame= 1440 fps= 30 q=-1.0 size=N/A time=00:00:48.96 bitrate=N/A speed=1.01x elapsed=0:00:48.46    frame=1440
2025-05-25 12:29:52,767 - converter - INFO - [FFmpeg - Test_stream_1] Progress: frame=  945 fps= 10 q=-1.0 size=N/A time=00:01:34.40 bitrate=N/A speed=1.01x elapsed=0:01:33.90    frame=945
2025-05-25 12:29:52,925 - converter - INFO - [FFmpeg - Test_stream_2] Progress: frame= 1455 fps= 30 q=-1.0 size=N/A time=00:00:49.46 bitrate=N/A speed=1.01x elapsed=0:00:48.98    frame=1455
2025-05-25 12:29:53,022 - werkzeug - INFO - 127.0.0.1 - - [25/May/2025 12:29:53] "GET /api/streams HTTP/1.1" 200 -
2025-05-25 12:29:53,283 - converter - INFO - [FFmpeg - Test_stream_1] Progress: frame=  950 fps= 10 q=-1.0 size=N/A time=00:01:35.00 bitrate=N/A speed=1.01x elapsed=0:01:34.42    frame=950
2025-05-25 12:29:53,439 - converter - INFO - [FFmpeg - Test_stream_2] Progress: frame= 1470 fps= 30 q=-1.0 size=N/A time=00:00:49.96 bitrate=N/A speed=1.01x elapsed=0:00:49.49    frame=1470
2025-05-25 12:29:53,796 - converter - INFO - [FFmpeg - Test_stream_1] Progress: frame=  955 fps= 10 q=-1.0 size=N/A time=00:01:35.50 bitrate=N/A speed=1.01x elapsed=0:01:34.93    frame=955
2025-05-25 12:29:53,950 - converter - INFO - [FFmpeg - Test_stream_2] Progress: frame= 1486 fps= 30 q=-1.0 size=N/A time=00:00:50.49 bitrate=N/A speed=1.01x elapsed=0:00:50.00    frame=1486
2025-05-25 12:29:54,308 - converter - INFO - [FFmpeg - Test_stream_1] Progress: frame=  960 fps= 10 q=-1.0 size=N/A time=00:01:36.00 bitrate=N/A speed=1.01x elapsed=0:01:35.44    frame=960
2025-05-25 12:29:54,465 - converter - INFO - [FFmpeg - Test_stream_2] Progress: frame= 1501 fps= 30 q=-1.0 size=N/A time=00:00:50.99 bitrate=N/A speed=1.01x elapsed=0:00:50.52    frame=1501
2025-05-25 12:29:54,821 - converter - INFO - [FFmpeg - Test_stream_1] Progress: frame=  965 fps= 10 q=-1.0 size=N/A time=00:01:36.50 bitrate=N/A speed=1.01x elapsed=0:01:35.96    frame=965
2025-05-25 12:29:54,989 - converter - INFO - [FFmpeg - Test_stream_2] Progress: frame= 1517 fps= 30 q=-1.0 size=N/A time=00:00:51.53 bitrate=N/A speed=1.01x elapsed=0:00:51.04    frame=1517
2025-05-25 12:29:55,349 - converter - INFO - [FFmpeg - Test_stream_1] Progress: frame=  970 fps= 10 q=-1.0 size=N/A time=00:01:37.00 bitrate=N/A speed=1.01x elapsed=0:01:36.48    frame=970
2025-05-25 12:29:55,505 - converter - INFO - [FFmpeg - Test_stream_2] Progress: frame= 1532 fps= 30 q=-1.0 size=N/A time=00:00:52.03 bitrate=N/A speed=1.01x elapsed=0:00:51.56    frame=1532
2025-05-25 12:29:55,863 - converter - INFO - [FFmpeg - Test_stream_1] Progress: frame=  976 fps= 10 q=-1.0 size=N/A time=00:01:37.50 bitrate=N/A speed=1.01x elapsed=0:01:37.00    frame=976
2025-05-25 12:29:56,017 - converter - INFO - [FFmpeg - Test_stream_2] Progress: frame= 1548 fps= 30 q=-1.0 size=N/A time=00:00:52.56 bitrate=N/A speed=1.01x elapsed=0:00:52.07    frame=1548
2025-05-25 12:29:56,375 - converter - INFO - [FFmpeg - Test_stream_1] Progress: frame=  981 fps= 10 q=-1.0 size=N/A time=00:01:38.10 bitrate=N/A speed=1.01x elapsed=0:01:37.51    frame=981
2025-05-25 12:29:56,530 - converter - INFO - [FFmpeg - Test_stream_2] Progress: frame= 1563 fps= 30 q=-1.0 size=N/A time=00:00:53.06 bitrate=N/A speed=1.01x elapsed=0:00:52.58    frame=1563
2025-05-25 12:29:56,884 - converter - INFO - [FFmpeg - Test_stream_1] Progress: frame=  986 fps= 10 q=-1.0 size=N/A time=00:01:38.60 bitrate=N/A speed=1.01x elapsed=0:01:38.02    frame=986
2025-05-25 12:29:57,042 - converter - INFO - [FFmpeg - Test_stream_2] Progress: frame= 1579 fps= 30 q=-1.0 size=N/A time=00:00:53.56 bitrate=N/A speed=1.01x elapsed=0:00:53.09    frame=1579
2025-05-25 12:29:57,400 - converter - INFO - [FFmpeg - Test_stream_1] Progress: frame=  991 fps= 10 q=-1.0 size=N/A time=00:01:39.10 bitrate=N/A speed=1.01x elapsed=0:01:38.54    frame=991
2025-05-25 12:29:57,556 - converter - INFO - [FFmpeg - Test_stream_2] Progress: frame= 1594 fps= 30 q=-1.0 size=N/A time=00:00:54.09 bitrate=N/A speed=1.01x elapsed=0:00:53.61    frame=1594
2025-05-25 12:29:57,929 - converter - INFO - [FFmpeg - Test_stream_1] Progress: frame=  996 fps= 10 q=-1.0 size=N/A time=00:01:39.60 bitrate=N/A speed=1.01x elapsed=0:01:39.06    frame=996
2025-05-25 12:29:58,025 - werkzeug - INFO - 127.0.0.1 - - [25/May/2025 12:29:58] "GET /api/streams HTTP/1.1" 200 -
2025-05-25 12:29:58,084 - converter - INFO - [FFmpeg - Test_stream_2] Progress: frame= 1610 fps= 30 q=-1.0 size=N/A time=00:00:54.63 bitrate=N/A speed=1.01x elapsed=0:00:54.13    frame=1610
2025-05-25 12:29:58,440 - converter - INFO - [FFmpeg - Test_stream_1] Progress: frame= 1001 fps= 10 q=-1.0 size=N/A time=00:01:40.10 bitrate=N/A speed=1.01x elapsed=0:01:39.58    frame=1001
2025-05-25 12:29:58,598 - converter - INFO - [FFmpeg - Test_stream_2] Progress: frame= 1625 fps= 30 q=-1.0 size=N/A time=00:00:55.13 bitrate=N/A speed=1.01x elapsed=0:00:54.65    frame=1625
2025-05-25 12:29:58,955 - converter - INFO - [FFmpeg - Test_stream_1] Progress: frame= 1006 fps= 10 q=-1.0 size=N/A time=00:01:40.60 bitrate=N/A speed=1.01x elapsed=0:01:40.09    frame=1006
2025-05-25 12:29:59,109 - converter - INFO - [FFmpeg - Test_stream_2] Progress: frame= 1641 fps= 30 q=-1.0 size=N/A time=00:00:55.63 bitrate=N/A speed=1.01x elapsed=0:00:55.16    frame=1641
2025-05-25 12:29:59,464 - converter - INFO - [FFmpeg - Test_stream_1] Progress: frame= 1012 fps= 10 q=-1.0 size=N/A time=00:01:41.10 bitrate=N/A speed=   1x elapsed=0:01:40.60    frame=1012
2025-05-25 12:29:59,618 - converter - INFO - [FFmpeg - Test_stream_2] Progress: frame= 1656 fps= 30 q=-1.0 size=N/A time=00:00:56.16 bitrate=N/A speed=1.01x elapsed=0:00:55.67    frame=1656
2025-05-25 12:29:59,979 - converter - INFO - [FFmpeg - Test_stream_1] Progress: frame= 1017 fps= 10 q=-1.0 size=N/A time=00:01:41.70 bitrate=N/A speed=1.01x elapsed=0:01:41.12    frame=1017
2025-05-25 12:30:00,136 - converter - INFO - [FFmpeg - Test_stream_2] Progress: frame= 1672 fps= 30 q=-1.0 size=N/A time=00:00:56.66 bitrate=N/A speed=1.01x elapsed=0:00:56.19    frame=1672
2025-05-25 12:30:00,493 - converter - INFO - [FFmpeg - Test_stream_1] Progress: frame= 1022 fps= 10 q=-1.0 size=N/A time=00:01:42.20 bitrate=N/A speed=1.01x elapsed=0:01:41.63    frame=1022
2025-05-25 12:30:00,649 - converter - INFO - [FFmpeg - Test_stream_2] Progress: frame= 1686 fps= 30 q=-1.0 size=N/A time=00:00:57.16 bitrate=N/A speed=1.01x elapsed=0:00:56.70    frame=1686
2025-05-25 12:30:01,022 - converter - INFO - [FFmpeg - Test_stream_1] Progress: frame= 1027 fps= 10 q=-1.0 size=N/A time=00:01:42.70 bitrate=N/A speed=1.01x elapsed=0:01:42.16    frame=1027
2025-05-25 12:30:01,177 - converter - INFO - [FFmpeg - Test_stream_2] Progress: frame= 1702 fps= 30 q=-1.0 size=N/A time=00:00:57.69 bitrate=N/A speed=1.01x elapsed=0:00:57.23    frame=1702
2025-05-25 12:30:01,536 - converter - INFO - [FFmpeg - Test_stream_1] Progress: frame= 1032 fps= 10 q=-1.0 size=N/A time=00:01:43.20 bitrate=N/A speed=1.01x elapsed=0:01:42.67    frame=1032
2025-05-25 12:30:01,691 - converter - INFO - [FFmpeg - Test_stream_2] Progress: frame= 1718 fps= 30 q=-1.0 size=N/A time=00:00:58.23 bitrate=N/A speed=1.01x elapsed=0:00:57.74    frame=1718
2025-05-25 12:30:02,048 - converter - INFO - [FFmpeg - Test_stream_1] Progress: frame= 1037 fps= 10 q=-1.0 size=N/A time=00:01:43.70 bitrate=N/A speed=   1x elapsed=0:01:43.18    frame=1037
2025-05-25 12:30:02,204 - converter - INFO - [FFmpeg - Test_stream_2] Progress: frame= 1734 fps= 30 q=-1.0 size=N/A time=00:00:58.73 bitrate=N/A speed=1.01x elapsed=0:00:58.25    frame=1734
2025-05-25 12:30:02,565 - converter - INFO - [FFmpeg - Test_stream_1] Progress: frame= 1043 fps= 10 q=-1.0 size=N/A time=00:01:44.20 bitrate=N/A speed=   1x elapsed=0:01:43.70    frame=1043
2025-05-25 12:30:02,721 - converter - INFO - [FFmpeg - Test_stream_2] Progress: frame= 1749 fps= 30 q=-1.0 size=N/A time=00:00:59.26 bitrate=N/A speed=1.01x elapsed=0:00:58.77    frame=1749
2025-05-25 12:30:03,020 - werkzeug - INFO - 127.0.0.1 - - [25/May/2025 12:30:03] "GET /api/streams HTTP/1.1" 200 -
2025-05-25 12:30:03,078 - converter - INFO - [FFmpeg - Test_stream_1] Progress: frame= 1048 fps= 10 q=-1.0 size=N/A time=00:01:44.80 bitrate=N/A speed=1.01x elapsed=0:01:44.21    frame=1048
2025-05-25 12:30:03,233 - converter - INFO - [FFmpeg - Test_stream_2] Progress: frame= 1764 fps= 30 q=-1.0 size=N/A time=00:00:59.76 bitrate=N/A speed=1.01x elapsed=0:00:59.28    frame=1764
2025-05-25 12:30:03,592 - converter - INFO - [FFmpeg - Test_stream_1] Progress: frame= 1053 fps= 10 q=-1.0 size=N/A time=00:01:45.30 bitrate=N/A speed=1.01x elapsed=0:01:44.73    frame=1053
2025-05-25 12:30:03,746 - converter - INFO - [FFmpeg - Test_stream_2] Progress: frame= 1780 fps= 30 q=-1.0 size=N/A time=00:01:00.29 bitrate=N/A speed=1.01x elapsed=0:00:59.80    frame=1780
2025-05-25 12:30:04,104 - converter - INFO - [FFmpeg - Test_stream_1] Progress: frame= 1058 fps= 10 q=-1.0 size=N/A time=00:01:45.80 bitrate=N/A speed=1.01x elapsed=0:01:45.24    frame=1058
2025-05-25 12:30:04,260 - converter - INFO - [FFmpeg - Test_stream_2] Progress: frame= 1796 fps= 30 q=-1.0 size=N/A time=00:01:00.79 bitrate=N/A speed=1.01x elapsed=0:01:00.31    frame=1796
2025-05-25 12:30:04,631 - converter - INFO - [FFmpeg - Test_stream_1] Progress: frame= 1063 fps= 10 q=-1.0 size=N/A time=00:01:46.30 bitrate=N/A speed=1.01x elapsed=0:01:45.77    frame=1063
2025-05-25 12:30:04,783 - converter - INFO - [FFmpeg - Test_stream_2] Progress: frame= 1811 fps= 30 q=-1.0 size=N/A time=00:01:01.29 bitrate=N/A speed=1.01x elapsed=0:01:00.83    frame=1811
2025-05-25 12:30:05,138 - converter - INFO - [FFmpeg - Test_stream_1] Progress: frame= 1068 fps= 10 q=-1.0 size=N/A time=00:01:46.80 bitrate=N/A speed=   1x elapsed=0:01:46.27    frame=1068
2025-05-25 12:30:05,293 - converter - INFO - [FFmpeg - Test_stream_2] Progress: frame= 1826 fps= 30 q=-1.0 size=N/A time=00:01:01.83 bitrate=N/A speed=1.01x elapsed=0:01:01.34    frame=1826
2025-05-25 12:30:05,654 - converter - INFO - [FFmpeg - Test_stream_1] Progress: frame= 1073 fps= 10 q=-1.0 size=N/A time=00:01:47.30 bitrate=N/A speed=   1x elapsed=0:01:46.79    frame=1073
2025-05-25 12:30:05,809 - converter - INFO - [FFmpeg - Test_stream_2] Progress: frame= 1842 fps= 30 q=-1.0 size=N/A time=00:01:02.36 bitrate=N/A speed=1.01x elapsed=0:01:01.86    frame=1842
2025-05-25 12:30:06,170 - converter - INFO - [FFmpeg - Test_stream_1] Progress: frame= 1079 fps= 10 q=-1.0 size=N/A time=00:01:47.80 bitrate=N/A speed=   1x elapsed=0:01:47.31    frame=1079
2025-05-25 12:30:06,323 - converter - INFO - [FFmpeg - Test_stream_2] Progress: frame= 1857 fps= 30 q=-1.0 size=N/A time=00:01:02.86 bitrate=N/A speed=1.01x elapsed=0:01:02.37    frame=1857
2025-05-25 12:30:06,681 - converter - INFO - [FFmpeg - Test_stream_1] Progress: frame= 1084 fps= 10 q=-1.0 size=N/A time=00:01:48.40 bitrate=N/A speed=1.01x elapsed=0:01:47.82    frame=1084
2025-05-25 12:30:06,851 - converter - INFO - [FFmpeg - Test_stream_2] Progress: frame= 1873 fps= 30 q=-1.0 size=N/A time=00:01:03.39 bitrate=N/A speed=1.01x elapsed=0:01:02.90    frame=1873
2025-05-25 12:30:07,209 - converter - INFO - [FFmpeg - Test_stream_1] Progress: frame= 1089 fps= 10 q=-1.0 size=N/A time=00:01:48.90 bitrate=N/A speed=1.01x elapsed=0:01:48.34    frame=1089
2025-05-25 12:30:07,364 - converter - INFO - [FFmpeg - Test_stream_2] Progress: frame= 1888 fps= 30 q=-1.0 size=N/A time=00:01:03.89 bitrate=N/A speed=1.01x elapsed=0:01:03.42    frame=1888
2025-05-25 12:30:07,723 - converter - INFO - [FFmpeg - Test_stream_1] Progress: frame= 1094 fps= 10 q=-1.0 size=N/A time=00:01:49.40 bitrate=N/A speed=   1x elapsed=0:01:48.86    frame=1094
2025-05-25 12:30:07,877 - converter - INFO - [FFmpeg - Test_stream_2] Progress: frame= 1904 fps= 30 q=-1.0 size=N/A time=00:01:04.43 bitrate=N/A speed=1.01x elapsed=0:01:03.93    frame=1904
2025-05-25 12:30:08,019 - werkzeug - INFO - 127.0.0.1 - - [25/May/2025 12:30:08] "GET /api/streams HTTP/1.1" 200 -
2025-05-25 12:30:08,233 - converter - INFO - [FFmpeg - Test_stream_1] Progress: frame= 1099 fps= 10 q=-1.0 size=N/A time=00:01:49.90 bitrate=N/A speed=   1x elapsed=0:01:49.37    frame=1099
2025-05-25 12:30:08,388 - converter - INFO - [FFmpeg - Test_stream_2] Progress: frame= 1919 fps= 30 q=-1.0 size=N/A time=00:01:04.93 bitrate=N/A speed=1.01x elapsed=0:01:04.44    frame=1919
2025-05-25 12:30:08,746 - converter - INFO - [FFmpeg - Test_stream_1] Progress: frame= 1104 fps= 10 q=-1.0 size=N/A time=00:01:50.40 bitrate=N/A speed=   1x elapsed=0:01:49.88    frame=1104
2025-05-25 12:30:08,902 - converter - INFO - [FFmpeg - Test_stream_2] Progress: frame= 1934 fps= 30 q=-1.0 size=N/A time=00:01:05.43 bitrate=N/A speed=1.01x elapsed=0:01:04.95    frame=1934
2025-05-25 12:30:09,259 - converter - INFO - [FFmpeg - Test_stream_1] Progress: frame= 1109 fps= 10 q=-1.0 size=N/A time=00:01:50.90 bitrate=N/A speed=   1x elapsed=0:01:50.40    frame=1109
2025-05-25 12:30:09,415 - converter - INFO - [FFmpeg - Test_stream_2] Progress: frame= 1950 fps= 30 q=-1.0 size=N/A time=00:01:05.96 bitrate=N/A speed=1.01x elapsed=0:01:05.47    frame=1950
2025-05-25 12:30:09,788 - converter - INFO - [FFmpeg - Test_stream_1] Progress: frame= 1115 fps= 10 q=-1.0 size=N/A time=00:01:51.40 bitrate=N/A speed=   1x elapsed=0:01:50.92    frame=1115
2025-05-25 12:30:09,945 - converter - INFO - [FFmpeg - Test_stream_2] Progress: frame= 1966 fps= 30 q=-1.0 size=N/A time=00:01:06.49 bitrate=N/A speed=1.01x elapsed=0:01:06.00    frame=1966
2025-05-25 12:30:10,303 - converter - INFO - [FFmpeg - Test_stream_1] Progress: frame= 1120 fps= 10 q=-1.0 size=N/A time=00:01:52.00 bitrate=N/A speed=   1x elapsed=0:01:51.44    frame=1120
2025-05-25 12:30:10,459 - converter - INFO - [FFmpeg - Test_stream_2] Progress: frame= 1981 fps= 30 q=-1.0 size=N/A time=00:01:06.99 bitrate=N/A speed=1.01x elapsed=0:01:06.51    frame=1981
2025-05-25 12:30:10,815 - converter - INFO - [FFmpeg - Test_stream_1] Progress: frame= 1125 fps= 10 q=-1.0 size=N/A time=00:01:52.50 bitrate=N/A speed=   1x elapsed=0:01:51.95    frame=1125
2025-05-25 12:30:10,971 - converter - INFO - [FFmpeg - Test_stream_2] Progress: frame= 1996 fps= 30 q=-1.0 size=N/A time=00:01:07.49 bitrate=N/A speed=1.01x elapsed=0:01:07.02    frame=1996
2025-05-25 12:30:11,331 - converter - INFO - [FFmpeg - Test_stream_1] Progress: frame= 1130 fps= 10 q=-1.0 size=N/A time=00:01:53.00 bitrate=N/A speed=   1x elapsed=0:01:52.47    frame=1130
2025-05-25 12:30:11,488 - converter - INFO - [FFmpeg - Test_stream_2] Progress: frame= 2012 fps= 30 q=-1.0 size=N/A time=00:01:08.03 bitrate=N/A speed=1.01x elapsed=0:01:07.54    frame=2012
2025-05-25 12:30:11,845 - converter - INFO - [FFmpeg - Test_stream_1] Progress: frame= 1135 fps= 10 q=-1.0 size=N/A time=00:01:53.50 bitrate=N/A speed=   1x elapsed=0:01:52.98    frame=1135
2025-05-25 12:30:12,001 - converter - INFO - [FFmpeg - Test_stream_2] Progress: frame= 2027 fps= 30 q=-1.0 size=N/A time=00:01:08.53 bitrate=N/A speed=1.01x elapsed=0:01:08.05    frame=2027
2025-05-25 12:30:12,357 - converter - INFO - [FFmpeg - Test_stream_1] Progress: frame= 1140 fps= 10 q=-1.0 size=N/A time=00:01:54.00 bitrate=N/A speed=   1x elapsed=0:01:53.49    frame=1140
2025-05-25 12:30:12,511 - converter - INFO - [FFmpeg - Test_stream_2] Progress: frame= 2042 fps= 30 q=-1.0 size=N/A time=00:01:09.03 bitrate=N/A speed=1.01x elapsed=0:01:08.56    frame=2042
2025-05-25 12:30:12,869 - converter - INFO - [FFmpeg - Test_stream_1] Progress: frame= 1146 fps= 10 q=-1.0 size=N/A time=00:01:54.50 bitrate=N/A speed=   1x elapsed=0:01:54.00    frame=1146
2025-05-25 12:30:13,025 - converter - INFO - [FFmpeg - Test_stream_2] Progress: frame= 2058 fps= 30 q=-1.0 size=N/A time=00:01:09.56 bitrate=N/A speed=1.01x elapsed=0:01:09.08    frame=2058
2025-05-25 12:30:13,029 - werkzeug - INFO - 127.0.0.1 - - [25/May/2025 12:30:13] "GET /api/streams HTTP/1.1" 200 -
2025-05-25 12:30:13,397 - converter - INFO - [FFmpeg - Test_stream_1] Progress: frame= 1151 fps= 10 q=-1.0 size=N/A time=00:01:55.10 bitrate=N/A speed=   1x elapsed=0:01:54.53    frame=1151
2025-05-25 12:30:13,552 - converter - INFO - [FFmpeg - Test_stream_2] Progress: frame= 2074 fps= 30 q=-1.0 size=N/A time=00:01:10.09 bitrate=N/A speed=1.01x elapsed=0:01:09.60    frame=2074
2025-05-25 12:30:13,910 - converter - INFO - [FFmpeg - Test_stream_1] Progress: frame= 1156 fps= 10 q=-1.0 size=N/A time=00:01:55.60 bitrate=N/A speed=   1x elapsed=0:01:55.05    frame=1156
2025-05-25 12:30:14,065 - converter - INFO - [FFmpeg - Test_stream_2] Progress: frame= 2090 fps= 30 q=-1.0 size=N/A time=00:01:10.59 bitrate=N/A speed=1.01x elapsed=0:01:10.12    frame=2090
2025-05-25 12:30:14,422 - converter - INFO - [FFmpeg - Test_stream_1] Progress: frame= 1161 fps= 10 q=-1.0 size=N/A time=00:01:56.10 bitrate=N/A speed=   1x elapsed=0:01:55.56    frame=1161
2025-05-25 12:30:14,577 - converter - INFO - [FFmpeg - Test_stream_2] Progress: frame= 2104 fps= 30 q=-1.0 size=N/A time=00:01:11.09 bitrate=N/A speed=1.01x elapsed=0:01:10.63    frame=2104
2025-05-25 12:30:14,936 - converter - INFO - [FFmpeg - Test_stream_1] Progress: frame= 1166 fps= 10 q=-1.0 size=N/A time=00:01:56.60 bitrate=N/A speed=   1x elapsed=0:01:56.07    frame=1166
2025-05-25 12:30:15,093 - converter - INFO - [FFmpeg - Test_stream_2] Progress: frame= 2120 fps= 30 q=-1.0 size=N/A time=00:01:11.63 bitrate=N/A speed=1.01x elapsed=0:01:11.14    frame=2120
2025-05-25 12:30:15,448 - converter - INFO - [FFmpeg - Test_stream_1] Progress: frame= 1171 fps= 10 q=-1.0 size=N/A time=00:01:57.10 bitrate=N/A speed=   1x elapsed=0:01:56.58    frame=1171
2025-05-25 12:30:15,603 - converter - INFO - [FFmpeg - Test_stream_2] Progress: frame= 2136 fps= 30 q=-1.0 size=N/A time=00:01:12.13 bitrate=N/A speed=1.01x elapsed=0:01:11.65    frame=2136
2025-05-25 12:30:15,975 - converter - INFO - [FFmpeg - Test_stream_1] Progress: frame= 1177 fps= 10 q=-1.0 size=N/A time=00:01:57.60 bitrate=N/A speed=   1x elapsed=0:01:57.11    frame=1177
2025-05-25 12:30:16,131 - converter - INFO - [FFmpeg - Test_stream_2] Progress: frame= 2151 fps= 30 q=-1.0 size=N/A time=00:01:12.66 bitrate=N/A speed=1.01x elapsed=0:01:12.18    frame=2151
2025-05-25 12:30:16,483 - converter - INFO - [FFmpeg - Test_stream_1] Progress: frame= 1182 fps= 10 q=-1.0 size=N/A time=00:01:58.20 bitrate=N/A speed=   1x elapsed=0:01:57.62    frame=1182
2025-05-25 12:30:16,639 - converter - INFO - [FFmpeg - Test_stream_2] Progress: frame= 2167 fps= 30 q=-1.0 size=N/A time=00:01:13.16 bitrate=N/A speed=1.01x elapsed=0:01:12.69    frame=2167
2025-05-25 12:30:16,996 - converter - INFO - [FFmpeg - Test_stream_1] Progress: frame= 1187 fps= 10 q=-1.0 size=N/A time=00:01:58.70 bitrate=N/A speed=   1x elapsed=0:01:58.13    frame=1187
2025-05-25 12:30:17,153 - converter - INFO - [FFmpeg - Test_stream_2] Progress: frame= 2182 fps= 30 q=-1.0 size=N/A time=00:01:13.69 bitrate=N/A speed=1.01x elapsed=0:01:13.20    frame=2182
2025-05-25 12:30:17,511 - converter - INFO - [FFmpeg - Test_stream_1] Progress: frame= 1192 fps= 10 q=-1.0 size=N/A time=00:01:59.20 bitrate=N/A speed=   1x elapsed=0:01:58.65    frame=1192
2025-05-25 12:30:17,667 - converter - INFO - [FFmpeg - Test_stream_2] Progress: frame= 2198 fps= 30 q=-1.0 size=N/A time=00:01:14.19 bitrate=N/A speed=1.01x elapsed=0:01:13.72    frame=2198
2025-05-25 12:30:18,025 - converter - INFO - [FFmpeg - Test_stream_1] Progress: frame= 1197 fps= 10 q=-1.0 size=N/A time=00:01:59.70 bitrate=N/A speed=   1x elapsed=0:01:59.16    frame=1197
2025-05-25 12:30:18,028 - werkzeug - INFO - 127.0.0.1 - - [25/May/2025 12:30:18] "GET /api/streams HTTP/1.1" 200 -
2025-05-25 12:30:18,180 - converter - INFO - [FFmpeg - Test_stream_2] Progress: frame= 2212 fps= 30 q=-1.0 size=N/A time=00:01:14.69 bitrate=N/A speed=1.01x elapsed=0:01:14.23    frame=2212
2025-05-25 12:30:18,552 - converter - INFO - [FFmpeg - Test_stream_1] Progress: frame= 1202 fps= 10 q=-1.0 size=N/A time=00:02:00.20 bitrate=N/A speed=   1x elapsed=0:01:59.69    frame=1202
2025-05-25 12:30:18,707 - converter - INFO - [FFmpeg - Test_stream_2] Progress: frame= 2228 fps= 30 q=-1.0 size=N/A time=00:01:15.23 bitrate=N/A speed=1.01x elapsed=0:01:14.76    frame=2228
2025-05-25 12:30:19,063 - converter - INFO - [FFmpeg - Test_stream_1] Progress: frame= 1208 fps= 10 q=-1.0 size=N/A time=00:02:00.80 bitrate=N/A speed=   1x elapsed=0:02:00.20    frame=1208
2025-05-25 12:30:19,221 - converter - INFO - [FFmpeg - Test_stream_2] Progress: frame= 2244 fps= 30 q=-1.0 size=N/A time=00:01:15.76 bitrate=N/A speed=1.01x elapsed=0:01:15.27    frame=2244
2025-05-25 12:30:19,575 - converter - INFO - [FFmpeg - Test_stream_1] Progress: frame= 1213 fps= 10 q=-1.0 size=N/A time=00:02:01.20 bitrate=N/A speed=   1x elapsed=0:02:00.71    frame=1213
2025-05-25 12:30:19,730 - converter - INFO - [FFmpeg - Test_stream_2] Progress: frame= 2260 fps= 30 q=-1.0 size=N/A time=00:01:16.26 bitrate=N/A speed=1.01x elapsed=0:01:15.78    frame=2260
2025-05-25 12:30:20,088 - converter - INFO - [FFmpeg - Test_stream_1] Progress: frame= 1218 fps= 10 q=-1.0 size=N/A time=00:02:01.80 bitrate=N/A speed=   1x elapsed=0:02:01.22    frame=1218
2025-05-25 12:30:20,243 - converter - INFO - [FFmpeg - Test_stream_2] Progress: frame= 2275 fps= 30 q=-1.0 size=N/A time=00:01:16.76 bitrate=N/A speed=1.01x elapsed=0:01:16.29    frame=2275
2025-05-25 12:30:20,293 - converter - WARNING - FFmpeg process for stream 'Test_stream_1' has ended.
2025-05-25 12:30:20,294 - converter - INFO - Stopped stream 'Test_stream_1'.
2025-05-25 12:30:20,295 - werkzeug - INFO - 127.0.0.1 - - [25/May/2025 12:30:20] "POST /api/streams/Test_stream_1/toggle HTTP/1.1" 200 -
2025-05-25 12:30:20,299 - werkzeug - INFO - 127.0.0.1 - - [25/May/2025 12:30:20] "GET /api/streams HTTP/1.1" 200 -
2025-05-25 12:30:20,757 - converter - INFO - [FFmpeg - Test_stream_2] Progress: frame= 2290 fps= 30 q=-1.0 size=N/A time=00:01:17.29 bitrate=N/A speed=1.01x elapsed=0:01:16.81    frame=2290
2025-05-25 12:30:21,054 - converter - WARNING - FFmpeg process for stream 'Test_stream_2' has ended.
2025-05-25 12:30:21,056 - converter - INFO - Stopped stream 'Test_stream_2'.
2025-05-25 12:30:21,056 - werkzeug - INFO - 127.0.0.1 - - [25/May/2025 12:30:21] "POST /api/streams/Test_stream_2/toggle HTTP/1.1" 200 -
2025-05-25 12:30:21,059 - werkzeug - INFO - 127.0.0.1 - - [25/May/2025 12:30:21] "GET /api/streams HTTP/1.1" 200 -
2025-05-25 12:30:23,359 - converter - WARNING - Stream 'Test_stream_1' is not active.
2025-05-25 12:30:23,360 - converter - INFO - Removed stream 'Test_stream_1'.
2025-05-25 12:30:23,362 - werkzeug - INFO - 127.0.0.1 - - [25/May/2025 12:30:23] "DELETE /api/streams/Test_stream_1 HTTP/1.1" 200 -
2025-05-25 12:30:23,365 - werkzeug - INFO - 127.0.0.1 - - [25/May/2025 12:30:23] "GET /api/streams HTTP/1.1" 200 -
2025-05-25 12:30:23,369 - werkzeug - INFO - 127.0.0.1 - - [25/May/2025 12:30:23] "GET /api/streams HTTP/1.1" 200 -
2025-05-25 12:30:25,077 - converter - WARNING - Stream 'Test_stream_2' is not active.
2025-05-25 12:30:25,078 - converter - INFO - Removed stream 'Test_stream_2'.
2025-05-25 12:30:25,078 - werkzeug - INFO - 127.0.0.1 - - [25/May/2025 12:30:25] "DELETE /api/streams/Test_stream_2 HTTP/1.1" 200 -
2025-05-25 12:30:25,085 - werkzeug - INFO - 127.0.0.1 - - [25/May/2025 12:30:25] "GET /api/streams HTTP/1.1" 200 -
2025-05-25 12:30:28,024 - werkzeug - INFO - 127.0.0.1 - - [25/May/2025 12:30:28] "GET /api/streams HTTP/1.1" 200 -
2025-05-25 12:30:28,383 - werkzeug - INFO - 127.0.0.1 - - [25/May/2025 12:30:28] "GET /api/streams HTTP/1.1" 200 -
